<?xml version="1.0" encoding="utf-8"?>
<!-- Generator: Adobe Illustrator 25.0.1, SVG Export Plug-In . SVG Version: 6.00 Build 0)  -->
<svg version="1.1" id="Layer_1" xmlns="http://www.w3.org/2000/svg" xmlns:xlink="http://www.w3.org/1999/xlink" x="0px" y="0px"
	 viewBox="0 0 319.9 296.2" enable-background="new 0 0 319.9 296.2" xml:space="preserve">
<g>
	<polygon points="202.9,89.1 187,89.1 187,80.9 227,80.9 227,89.1 211.2,89.1 211.2,212.2 202.9,212.2 	"/>
	<path d="M105.3,198c0,1.9,0.5,3.6,1.6,5.1c1,1.5,3.2,2.2,6.4,2.2c2.8,0,4.9-0.6,6.3-1.7c1.4-1.2,2-3.1,2-5.9v-21.3
		c0-3.4-0.3-6.3-0.9-8.6c-0.6-2.4-1.6-5.1-3-8.1l-15.3-28.5c-1.5-2.8-2.6-5.8-3.5-9.2c-0.9-3.3-1.3-6.2-1.3-8.6V94.2
		c0-4.4,1.4-7.8,4.2-10.3c2.8-2.5,6.7-3.7,11.6-3.7c5.2,0,9,1,11.6,3c2.6,2,3.9,5.2,3.9,9.5v23.8h-7.8v-22c0-4.5-2.4-6.7-7.2-6.7
		c-2.5,0-4.3,0.7-5.5,2.1c-1.2,1.4-1.8,3.1-1.8,5V114c0,4,1,8.1,3,12.4c2.5,4.6,5,9.3,7.5,14.1c2.5,4.8,5,9.5,7.5,14.3
		c1.6,3,2.9,6.2,4,9.4c1,3.2,1.6,6.7,1.6,10.5v24.5c0,4.2-1.2,7.6-3.7,10.1c-2.5,2.5-6.6,3.7-12.6,3.7c-5.9,0-10.1-1.2-12.6-3.7
		c-2.5-2.5-3.7-6-3.7-10.6v-23.6h7.8V198z"/>
	<path d="M311.3,80.9h8.7l-15.5,73.8v57.5h-8.3v-57.5c-1.1-5.9-14.4-67.8-15.5-73.8h8.7l11.3,57.5L311.3,80.9z"/>
	<polygon points="20.5,92 7.4,212.2 -0.2,212.2 14.6,80.9 25.8,80.9 41.2,212.2 32.7,212.2 	"/>
	<path d="M206,269.1l-7.3,3.1l0,0.9c0.8-0.2,1.3-0.3,1.6-0.2c0.3,0,0.5,0.1,0.7,0.3c0.2,0.1,0.3,0.3,0.3,0.6
		c0.1,0.6,0.2,1.7,0.1,3.2l-0.8,15.5l5.8-1.4l0.3-7.1c1-4.4,2.3-7.8,3.9-10.3c0.6-1,1.2-1.5,1.8-1.7c0.2,0,0.4,0,0.5,0.1
		c0.2,0.1,0.3,0.2,0.3,0.4c0.1,0.3,0.1,0.8,0,1.5l-0.5,10.3c-0.1,1.3,0,2.3,0.1,3c0.2,0.7,0.6,1.3,1.2,1.6c0.6,0.4,1.4,0.4,2.4,0.2
		c2.4-0.6,4.3-3,5.7-7.2l-1-0.3c-0.2,0.5-0.3,0.9-0.4,1.1c-0.4,0.9-0.7,1.7-1.2,2.2c-0.1,0.2-0.3,0.3-0.4,0.3c-0.1,0-0.3,0-0.4-0.1
		c-0.1-0.1-0.2-0.2-0.3-0.4c-0.1-0.3-0.1-0.8,0-1.7l0.6-10.3c0.1-1.3,0-2.4-0.2-3.2c-0.2-0.9-0.7-1.6-1.4-2.1
		c-0.7-0.4-1.4-0.6-2.2-0.4c-0.9,0.2-1.7,0.7-2.6,1.5c-0.9,0.8-1.8,2.1-2.8,3.9c-0.7,1.3-1.6,3.5-2.8,6.8l0.5-10.3L206,269.1z
		 M190.5,271.7l-7.6,2.4l-0.2,1c0.3-0.1,0.6-0.1,0.8-0.1c0.5-0.1,0.9,0,1.2,0.2c0.3,0.2,0.5,0.5,0.6,0.8c0.1,0.5,0,1.4-0.1,2.5
		l-1.7,11.4c-0.1,0.9-0.2,1.6-0.1,2.2c0.1,0.9,0.5,1.5,1.2,2c0.7,0.5,1.5,0.6,2.5,0.5c2.6-0.4,4.8-2.7,6.5-7.1l-0.8-0.4
		c-0.8,1.6-1.4,2.8-2.1,3.4c-0.2,0.3-0.5,0.4-0.7,0.5c-0.2,0-0.3,0-0.5-0.2c-0.2-0.1-0.2-0.3-0.3-0.4c0-0.3,0-0.9,0.1-1.9l2.4-17
		L190.5,271.7z M186.7,262.5c-0.6,0.7-0.8,1.6-0.6,2.5c0.1,0.9,0.6,1.7,1.3,2.3c0.8,0.6,1.6,0.8,2.5,0.7c0.9-0.1,1.7-0.6,2.3-1.3
		c0.6-0.8,0.8-1.6,0.7-2.5c-0.1-0.9-0.6-1.7-1.3-2.3c-0.7-0.6-1.6-0.8-2.5-0.7C188,261.3,187.3,261.7,186.7,262.5 M163.8,283.1
		c0.5-2.2,1.1-3.7,1.6-4.4c0.8-1.1,1.7-1.7,2.8-1.7c0.6,0,1.2,0.2,1.8,0.8c0.5,0.5,0.8,1.4,0.9,2.5c0.1,1.9-0.1,3.9-0.7,5.9
		c-0.6,2-1.3,3.7-2.2,5.1c-0.9,1.4-1.8,2.4-2.6,3c-0.5,0.4-1.2,0.5-2,0.6c-0.6,0-1.3-0.2-2-0.6L163.8,283.1z M167.2,263l-7.7,1.7
		l-0.2,0.9c0.9-0.1,1.5,0,2,0.3c0.3,0.2,0.5,0.5,0.5,0.9c0,0.4-0.1,1.2-0.4,2.4l-6,24.9c2.9,1.4,5.6,2,8.2,1.9
		c3.4-0.2,6.4-1.7,9-4.8c2.9-3.4,4.2-7.2,4-11.4c-0.1-1.7-0.6-3.3-1.6-4.6c-1-1.3-2.4-1.9-4.3-1.8c-1,0-1.8,0.3-2.6,0.8
		c-0.8,0.5-1.8,1.4-2.9,2.8l3.4-14.2L167.2,263z M141.2,285.6c-0.9,1.6-1.9,2.9-3,4c-0.8,0.8-1.5,1.1-2.2,1.1
		c-0.3,0-0.6-0.2-0.9-0.6c-0.2-0.4-0.3-1-0.3-1.8c0.1-2.1,0.9-4.6,2.3-7.5c1.4-2.8,2.6-4.7,3.7-5.6c0.5-0.4,1-0.6,1.5-0.6
		c0.5,0,0.8,0.2,1.1,0.7c0.4,0.6,0.5,1.5,0.4,2.7C143.8,280.3,142.9,282.8,141.2,285.6 M146.1,274.1l-1,2.8c-0.2-1.3-0.5-2.3-1-2.8
		c-0.5-0.5-1.2-0.8-2-0.9c-1.6-0.1-3.3,0.5-5.1,1.8c-2.3,1.6-4.2,3.7-5.7,6.5c-1.5,2.7-2.3,5.2-2.5,7.4c-0.1,1.5,0.1,2.8,0.7,4
		c0.6,1.2,1.5,1.9,3,1.9c1.1,0.1,2.1-0.2,3.1-0.9c1.7-1.2,3.6-3.2,5.6-6.2l-0.7,1.8c-0.6,1.6-0.9,2.7-1,3.3c0,0.7,0.1,1.3,0.6,1.8
		c0.4,0.5,1.1,0.8,2,0.8c1.4,0.1,2.8-0.3,4.1-1.1c1.3-0.8,2.6-2.2,3.8-4.2l-0.8-0.5c-1,1.2-1.6,1.8-1.8,2c-0.6,0.5-1.1,0.7-1.4,0.7
		c-0.1,0-0.3-0.1-0.4-0.2c-0.1-0.1-0.2-0.3-0.2-0.5c0-0.1,0-0.3,0.1-0.5l0.6-1.8l5.5-15.1L146.1,274.1z M131.7,261.9
		c-0.9,0.7-1.8,0.9-2.5,0.8c-0.4-0.1-1-0.3-1.9-0.8c-1.8-0.9-3.3-1.5-4.6-1.8c-3.4-0.7-6.9-0.4-10.7,0.9c-3.8,1.2-6.9,3.2-9.3,6
		c-2.4,2.7-4,5.8-4.6,9.2c-0.7,3.6-0.2,6.8,1.7,9.5c1.8,2.7,4.6,4.4,8.3,5.2c2.8,0.5,5.2,0.4,7.4-0.3c2.1-0.8,4.4-2.4,6.9-4.8
		l-1.1-0.2c-1.9,1.5-3.6,2.5-5.3,3c-1.6,0.5-3.4,0.6-5.2,0.2c-2.2-0.4-3.9-1.5-4.9-3.1c-1-1.6-1.3-3.7-0.7-6.4
		c0.6-2.9,1.7-5.8,3.5-8.5c2.2-3.4,4.5-5.8,6.9-7.2c2.4-1.4,4.7-1.9,6.8-1.5c1.9,0.4,3.4,1.4,4.3,2.9c0.9,1.6,1.2,3.7,0.8,6.4
		l0.9,0.2l4.2-9.4L131.7,261.9z"/>
	<path d="M258.6,38l2.7-5.2l7.1-4.1l-1.6-0.8l-5.6,3.4l-0.4-6.5l-1.6-0.8l0.6,8.2l-2.7,5.2L258.6,38z M246.8,32.3l4.6-10.4l3.3,1.5
		l0.6-1.3l-8.1-3.5l-0.6,1.3l3.3,1.5l-4.6,10.4L246.8,32.3z M237.8,28.5l0.5-1.3l-4.9-1.9l1.8-4.6l4.9,1.9l0.5-1.3l-4.9-1.9l1.3-3.4
		l4.9,1.9l0.5-1.3l-6.3-2.4l-4.6,12L237.8,28.5z M225.3,24.1l4-12.2l-1.5-0.5l-4,12.2L225.3,24.1z M221.2,10.5
		c-0.5-0.6-1.1-1.2-1.7-1.6c-0.6-0.4-1.3-0.7-2-0.9c-0.9-0.2-1.8-0.3-2.6-0.2c-0.9,0.1-1.7,0.4-2.5,0.8c-0.8,0.5-1.5,1-2,1.7
		s-0.9,1.5-1.2,2.5c-0.3,1.1-0.3,2.2-0.1,3.2c0.2,1,0.7,2,1.4,2.9c0.4,0.5,0.9,1,1.5,1.3c0.6,0.4,1.2,0.6,1.8,0.8
		c0.8,0.2,1.5,0.3,2.3,0.3c0.8,0,1.5-0.2,2.3-0.5l0.5-2c-0.7,0.5-1.5,0.8-2.3,1c-0.8,0.1-1.5,0.1-2.3-0.1c-0.8-0.2-1.6-0.6-2.2-1.2
		c-0.6-0.6-1.1-1.3-1.4-2.1c-0.2-0.5-0.3-1-0.3-1.5c0-0.5,0.1-1.1,0.2-1.7c0.2-0.7,0.5-1.4,0.9-1.9c0.4-0.5,0.9-1,1.5-1.4
		c0.6-0.4,1.2-0.6,1.9-0.7c0.7-0.1,1.4-0.1,2,0.1c0.8,0.2,1.5,0.6,2.1,1.1c0.6,0.5,1.1,1.1,1.5,1.9L221.2,10.5z M203.4,9
		c-0.2-0.9-0.5-1.7-1-2.4c-0.5-0.7-1.2-1.4-1.9-1.8c-0.8-0.5-1.6-0.8-2.5-1c-0.9-0.2-1.8-0.2-2.7,0c-0.9,0.2-1.7,0.5-2.5,1
		c-0.8,0.5-1.4,1.1-1.9,1.9s-0.8,1.6-1,2.5c-0.2,0.9-0.2,1.8,0,2.6c0.2,0.9,0.5,1.7,1.1,2.4c0.5,0.7,1.2,1.4,1.9,1.9
		c0.8,0.5,1.6,0.8,2.5,1c0.9,0.2,1.8,0.2,2.7,0c0.9-0.2,1.7-0.5,2.5-1c0.8-0.5,1.4-1.1,1.9-1.9c0.5-0.7,0.8-1.6,1-2.5
		C203.6,10.7,203.6,9.8,203.4,9 M193.8,14.8c-0.6-0.4-1.1-0.9-1.5-1.5c-0.4-0.6-0.7-1.2-0.8-1.9c-0.1-0.7-0.1-1.4,0-2.1
		c0.1-0.7,0.4-1.4,0.8-1.9c0.4-0.6,0.9-1.1,1.5-1.5c0.6-0.4,1.2-0.7,1.9-0.8c0.7-0.1,1.4-0.1,2.1,0c0.7,0.1,1.3,0.4,1.9,0.8
		c0.6,0.4,1.1,0.9,1.5,1.5c0.4,0.6,0.7,1.2,0.8,1.9s0.1,1.4,0,2.1c-0.1,0.7-0.4,1.3-0.8,1.9c-0.4,0.6-0.9,1.1-1.5,1.5
		c-0.6,0.4-1.2,0.7-1.9,0.8c-0.7,0.1-1.4,0.1-2,0C195,15.4,194.4,15.2,193.8,14.8 M180.4,6.5c-0.6-0.3-1-0.7-1.2-1
		c-0.2-0.4-0.3-0.8-0.3-1.2c0.1-0.5,0.3-1,0.7-1.3c0.4-0.3,0.9-0.4,1.5-0.4c0.4,0.1,0.8,0.2,1.2,0.5c0.3,0.3,0.6,0.7,0.8,1.2
		l1.3-0.7c-0.2-0.7-0.6-1.2-1.1-1.6c-0.5-0.4-1.2-0.6-1.9-0.7c-1-0.1-1.9,0.1-2.7,0.6c-0.7,0.5-1.2,1.2-1.3,2.1
		c-0.1,0.8,0,1.5,0.4,2.1c0.4,0.6,0.9,1.1,1.7,1.6l1.5,0.8c0.6,0.4,1.1,0.8,1.4,1.2c0.3,0.5,0.4,1,0.3,1.5c-0.1,0.7-0.4,1.2-0.9,1.6
		c-0.5,0.4-1.2,0.5-1.9,0.4c-0.6-0.1-1.2-0.3-1.5-0.8c-0.4-0.4-0.6-1.1-0.7-1.9l-1.5,0.5c0.1,1,0.5,1.8,1.1,2.4
		c0.6,0.6,1.4,0.9,2.4,1.1c1.2,0.1,2.3-0.1,3.1-0.7s1.3-1.5,1.4-2.7c0.1-0.8,0-1.5-0.4-2.2c-0.4-0.6-0.9-1.2-1.7-1.6L180.4,6.5z
		 M162.2,1.6c-0.7-0.5-1.4-0.8-2.1-1.1c-0.7-0.2-1.4-0.4-2.2-0.4c-0.9,0-1.8,0.1-2.6,0.4c-0.8,0.3-1.5,0.8-2.2,1.4
		c-0.7,0.7-1.2,1.4-1.5,2.2c-0.3,0.8-0.5,1.7-0.5,2.7c0,1.1,0.2,2.2,0.7,3.1c0.5,1,1.2,1.8,2.1,2.4c0.6,0.4,1.2,0.7,1.8,0.9
		c0.6,0.2,1.3,0.3,2,0.3c0.8,0,1.5-0.1,2.3-0.3c0.7-0.2,1.4-0.6,2.1-1l0-2c-0.6,0.7-1.2,1.2-1.9,1.5c-0.7,0.3-1.5,0.5-2.3,0.5
		c-0.9,0-1.7-0.2-2.4-0.6c-0.7-0.4-1.4-1-1.9-1.7c-0.3-0.4-0.5-0.9-0.6-1.4c-0.1-0.5-0.2-1.1-0.2-1.7c0-0.8,0.1-1.5,0.4-2.1
		c0.3-0.6,0.6-1.2,1.1-1.7c0.5-0.5,1-0.9,1.7-1.1c0.7-0.3,1.3-0.4,2-0.4c0.8,0,1.6,0.2,2.3,0.5c0.7,0.3,1.3,0.8,1.9,1.5L162.2,1.6z
		 M145.1,13.7l-0.8-12.8l-1.5,0.1l0.8,12.8L145.1,13.7z M135,14.5l-1-11.4l3.6-0.3l-0.1-1.5l-8.8,0.8l0.1,1.5l3.6-0.3l1,11.4
		L135,14.5z M125.2,15.7l-0.2-1.4l-5.2,0.9l-0.8-4.9l5.2-0.9L123.9,8l-5.2,0.9l-0.6-3.6l5.2-0.9L123.1,3l-6.7,1.1l2.1,12.7
		L125.2,15.7z M104,19.8l-1.4-6.3l6.7-1.5l1.4,6.3l1.5-0.3l-2.7-12.6L108,5.8l1.1,4.8l-6.7,1.5l-1.1-4.8l-1.5,0.3l2.7,12.6L104,19.8
		z M94.1,22.6l-3.3-10.9l3.5-1l-0.4-1.4l-8.4,2.5l0.4,1.4l3.5-1L92.6,23L94.1,22.6z M78.6,19.4c-0.6,0-1.2-0.2-1.5-0.4
		c-0.4-0.2-0.6-0.5-0.8-1c-0.2-0.5-0.2-1,0.1-1.4c0.2-0.5,0.6-0.8,1.2-1c0.4-0.1,0.8-0.2,1.3-0.1c0.4,0.1,0.8,0.4,1.3,0.7l0.9-1.2
		c-0.5-0.5-1.1-0.8-1.7-0.9c-0.6-0.1-1.3-0.1-2.1,0.2c-1,0.4-1.7,0.9-2.2,1.7c-0.4,0.8-0.5,1.6-0.2,2.5c0.3,0.7,0.7,1.3,1.3,1.7
		c0.6,0.4,1.3,0.6,2.3,0.7l1.7,0.1c0.7,0.1,1.3,0.2,1.8,0.5c0.5,0.3,0.8,0.7,1,1.2c0.2,0.7,0.2,1.3-0.1,1.9c-0.3,0.6-0.8,1-1.5,1.2
		c-0.6,0.2-1.2,0.2-1.7,0c-0.5-0.2-1-0.7-1.5-1.4l-1.1,1.1c0.5,0.8,1.2,1.4,2,1.6c0.8,0.3,1.7,0.2,2.7-0.1c1.2-0.4,2-1.1,2.5-2
		c0.5-0.9,0.5-2,0.1-3.1c-0.3-0.8-0.7-1.4-1.3-1.8c-0.6-0.4-1.3-0.7-2.3-0.7L78.6,19.4z M73,30.1l-0.6-1.3l-4.8,2.1l-2-4.5l4.8-2.1
		L69.9,23l-4.8,2.1l-1.5-3.4l4.8-2.1l-0.6-1.3l-6.2,2.7l5.2,11.8L73,30.1z M52.1,40l1.5-0.7L53.3,35l4.5-2.2l3.2,2.8l1.5-0.7
		l-11.2-9.4L52.1,40z M56.8,31.8l-3.7,1.8l-0.3-5.1L56.8,31.8z"/>
	<polygon points="203,89.1 187.1,89.1 187.1,80.9 227.2,80.9 227.2,89.1 211.3,89.1 211.3,212.2 203,212.2 	"/>
	<polygon points="20.6,92 7.5,212.2 -0.1,212.2 14.7,80.9 26,80.9 41.3,212.2 32.8,212.2 	"/>
	<path d="M105.4,198c0,1.9,0.5,3.6,1.6,5.1c1,1.5,3.2,2.2,6.4,2.2c2.8,0,4.9-0.6,6.3-1.7c1.4-1.2,2-3.1,2-5.9v-21.3
		c0-3.4-0.3-6.3-0.9-8.6c-0.6-2.4-1.6-5.1-3-8.1l-15.3-28.5c-1.5-2.8-2.6-5.8-3.5-9.2c-0.9-3.3-1.3-6.2-1.3-8.6V94.2
		c0-4.4,1.4-7.8,4.2-10.3c2.8-2.5,6.7-3.7,11.6-3.7c5.2,0,9,1,11.6,3c2.6,2,3.9,5.2,3.9,9.5v23.8h-7.8v-22c0-4.5-2.4-6.7-7.2-6.7
		c-2.5,0-4.3,0.7-5.5,2.1c-1.2,1.4-1.8,3.1-1.8,5V114c0,4,1,8.1,3,12.4c2.5,4.6,5,9.3,7.5,14.1c2.5,4.8,5,9.5,7.5,14.3
		c1.6,3,2.9,6.2,4,9.4c1,3.2,1.6,6.7,1.6,10.5v24.5c0,4.2-1.2,7.6-3.7,10.1c-2.5,2.5-6.6,3.7-12.6,3.7c-5.9,0-10.1-1.2-12.6-3.7
		c-2.5-2.5-3.7-6-3.7-10.6v-23.6h7.8V198z"/>
	<path d="M311.4,80.9h8.7l-15.5,73.8v57.5h-8.3v-57.5c-1.1-5.9-14.4-67.8-15.5-73.8h8.7l11.3,57.5L311.4,80.9z"/>
</g>
</svg>
