<?xml version="1.0" encoding="utf-8"?>
<!-- Generator: Adobe Illustrator 25.0.1, SVG Export Plug-In . SVG Version: 6.00 Build 0)  -->
<svg version="1.1" id="Layer_1" xmlns="http://www.w3.org/2000/svg" xmlns:xlink="http://www.w3.org/1999/xlink" x="0px" y="0px"
	 viewBox="0 0 761.9 1126.8" style="enable-background:new 0 0 761.9 1126.8;" xml:space="preserve">
<style type="text/css">
	.st0{fill:#0D0D16;}
</style>
<g>
	<path d="M1362.7,1080.5c0,5.7,3.6,11.4,8.1,13.6l-1.7,2.3c-3.6-1.8-6.4-5.5-7.9-9.9c-1.4,4.7-4.3,8.6-7.8,10.5l-1.8-2.3
		c4.6-2.3,8.1-8.3,8.1-14.1v-5.6h2.9V1080.5z M1377.6,1072.2v31.4h-2.9v-18.4h-7.3v-2.3h7.3v-10.6H1377.6z"/>
	<path d="M1398.6,1087.8v2.9h9.1v7.1h-18.4v3.2h19.4v2.2h-22.2v-7.5h18.4v-2.8h-18.5v-2.2h9.3v-2.9H1383v-2.3h28.4v2.3H1398.6z
		 M1386.2,1078c0-3.5,4.1-5.5,11-5.5c6.9,0,11,1.9,11,5.5c0,3.5-4.1,5.4-11,5.4C1390.3,1083.4,1386.2,1081.5,1386.2,1078z
		 M1389.1,1078c0,2.1,2.9,3.3,8.1,3.3c5.1,0,8.1-1.2,8.1-3.3c0-2.1-2.9-3.3-8.1-3.3C1392,1074.7,1389.1,1075.9,1389.1,1078z"/>
	<path d="M1442.7,1088.8v2.3h-28.4v-2.3H1442.7z M1417.5,1094.1h21.6v9.5h-2.9v-7.2h-18.7V1094.1z M1439.4,1085.8H1418V1073h21.2
		v2.2h-18.3v3h17.5v2.2h-17.5v3.2h18.5V1085.8z"/>
	<path d="M1461.4,1087.4h-14.1v-13.7h2.8v4.5h8.5v-4.4h2.8v3h7.2v-4.4h2.9v16.4h-2.9v-4h-7.2V1087.4z M1458.5,1080.4h-8.5v4.7h8.5
		V1080.4z M1472.7,1100.9v2.3h-21.4v-7.8h17.3v-3h-17.4v-2.3h20.2v7.5h-17.3v3.3H1472.7z M1461.4,1078.9v3.5h7.2v-3.5H1461.4z"/>
	<path d="M1488.1,1080.6c0,5.7,3.7,11.5,8.4,13.6l-1.7,2.3c-3.6-1.8-6.6-5.5-8.1-9.9c-1.4,4.7-4.4,8.6-8.1,10.5l-1.8-2.3
		c4.6-2.2,8.4-8.2,8.4-14.2v-5.6h2.8V1080.6z M1502.7,1072.2v31.5h-2.9v-31.5H1502.7z"/>
	<path d="M1543.7,1087.8v2.3h-28.4v-2.3h12.7v-4.6h2.9v4.6H1543.7z M1540.9,1084.8c-4.8-0.8-9.4-3.3-11.4-6.9
		c-2,3.6-6.6,6.1-11.4,6.9l-1.1-2.3c5.6-0.8,11-4.3,11-8.4v-1.4h2.9v1.4c0,4.2,5.4,7.7,11,8.4L1540.9,1084.8z M1540.2,1098.1
		c0,3.5-4,5.4-10.7,5.4s-10.7-1.9-10.7-5.4c0-3.5,4-5.4,10.7-5.4S1540.2,1094.6,1540.2,1098.1z M1537.3,1098.1
		c0-2.1-2.9-3.2-7.8-3.2c-5,0-7.8,1.2-7.8,3.2c0,2.1,2.9,3.2,7.8,3.2C1534.4,1101.4,1537.3,1100.2,1537.3,1098.1z"/>
	<path d="M1561.1,1093c1.6-0.1,3.3-0.2,4.8-0.5l0.2,2.1c-6.6,1-14,1.2-19.6,1.2l-0.4-2.4c1.3,0,2.7,0,4.2,0v-15.5h-3.4v-2.3h17.5
		v2.3h-3.4V1093z M1553.2,1093.3c1.7,0,3.4-0.1,5.1-0.2v-15.3h-5.1V1093.3z M1575.9,1087.1h-5.2v16.5h-2.9v-31.4h2.9v12.5h5.2
		V1087.1z"/>
	<path d="M1606.3,1090.1h-12.8v13.5h-2.9v-13.5H1578v-2.3h20.8c1-4.5,1-7.8,1-10.8v-0.4h-18.3v-2.3h21.1v2.7c0,2.9,0,6.3-0.9,10.8
		h4.7V1090.1z"/>
	<path d="M1632.2,1075.6c0,8.9-4.1,17-14.2,22.1l-1.6-2.2c8-4,12.3-10,13-17.5h-11.5v-2.4H1632.2z M1645.4,1087.3h-5v16.3h-2.9
		v-31.4h2.9v12.7h5V1087.3z"/>
	<path d="M1666.3,1088.6c-5,0.8-9.1,1.1-14.9,1.1h-2.5v-9.1h11.2v-4.2h-11.3v-2.3h14.1v8.7h-11.2v4.5c5.5,0,9.5-0.2,14.3-1
		L1666.3,1088.6z M1651.5,1093h20.4v10.6h-2.9v-8.3h-17.5V1093z M1676.6,1082.6h-4.7v8.7h-2.9v-19.1h2.9v8h4.7V1082.6z"/>
	<path d="M1707.3,1087.7v2.3h-28.4v-2.3h12.8v-3.6h-9.2v-10.4h21.3v2.3h-18.4v5.8h18.7v2.3h-9.5v3.6H1707.3z M1703.8,1097.9
		c0,3.6-4.1,5.7-10.7,5.7c-6.7,0-10.8-2-10.8-5.7c0-3.6,4.1-5.7,10.8-5.7C1699.7,1092.3,1703.8,1094.3,1703.8,1097.9z
		 M1700.9,1097.9c0-2.2-2.9-3.4-7.8-3.4c-5,0-7.9,1.2-7.9,3.4c0,2.2,2.9,3.4,7.9,3.4C1698,1101.4,1700.9,1100.1,1700.9,1097.9z"/>
	<path d="M1719.1,1096.8c1.1,1.2,2.7,2,4.3,2c3.3,0,6.2-2.7,6.4-10.7c-1.5,1.9-3.7,3.2-5.9,3.2c-4.3,0-7.1-2.8-7.1-8.1
		c0-5,3.4-8.3,7.4-8.3c4.9,0,8.6,4.1,8.6,12.2c0,10.4-4.5,14.4-9.3,14.4c-2.8,0-4.7-1.1-6.2-2.6L1719.1,1096.8z M1729.8,1085.5
		c-0.3-5.3-2.3-8.1-5.6-8.1c-2.5,0-4.3,2.3-4.3,5.8c0,3.5,1.5,5.7,4.6,5.7C1726.1,1088.9,1728.1,1087.9,1729.8,1085.5z"/>
	<path d="M1737.6,1096.8c1.1,1.2,2.7,2,4.3,2c3.3,0,6.2-2.7,6.4-10.7c-1.5,1.9-3.7,3.2-5.9,3.2c-4.3,0-7.1-2.8-7.1-8.1
		c0-5,3.4-8.3,7.4-8.3c4.9,0,8.6,4.1,8.6,12.2c0,10.4-4.5,14.4-9.3,14.4c-2.8,0-4.7-1.1-6.2-2.6L1737.6,1096.8z M1748.3,1085.5
		c-0.4-5.3-2.3-8.1-5.6-8.1c-2.4,0-4.3,2.3-4.3,5.8c0,3.5,1.5,5.7,4.6,5.7C1744.7,1088.9,1746.6,1087.9,1748.3,1085.5z"/>
</g>
<g>
	<g>
		<path d="M182.5,1080.5c0,5.7,3.5,11.4,8,13.6l-1.7,2.3c-3.5-1.8-6.4-5.5-7.8-9.9c-1.4,4.7-4.2,8.6-7.7,10.5l-1.7-2.3
			c4.5-2.3,8-8.3,8-14.1v-5.6h2.8V1080.5z M197.3,1072.2v31.4h-2.8v-18.4h-7.2v-2.3h7.2v-10.6H197.3z"/>
		<path d="M218.2,1087.8v2.9h9.1v7.1h-18.3v3.2h19.2v2.2h-22v-7.5h18.2v-2.8h-18.3v-2.2h9.2v-2.9h-12.6v-2.3h28.1v2.3H218.2z
			 M205.8,1078c0-3.5,4.1-5.5,10.9-5.5c6.9,0,10.9,1.9,10.9,5.5c0,3.5-4.1,5.4-10.9,5.4C209.9,1083.4,205.8,1081.5,205.8,1078z
			 M208.7,1078c0,2.1,2.9,3.3,8,3.3s8-1.2,8-3.3c0-2.1-2.9-3.3-8-3.3S208.7,1075.9,208.7,1078z"/>
		<path d="M261.9,1088.8v2.3h-28.2v-2.3H261.9z M236.9,1094.1h21.4v9.5h-2.8v-7.2h-18.5V1094.1z M258.6,1085.8h-21.2V1073h21v2.2
			h-18.1v3h17.3v2.2h-17.3v3.2h18.3V1085.8z"/>
		<path d="M280.4,1087.4h-14v-13.7h2.8v4.5h8.4v-4.4h2.8v3h7.2v-4.4h2.8v16.4h-2.8v-4h-7.2V1087.4z M277.6,1080.4h-8.4v4.7h8.4
			V1080.4z M291.6,1100.9v2.3h-21.2v-7.8h17.2v-3h-17.2v-2.3h20v7.5h-17.2v3.3H291.6z M280.4,1078.9v3.5h7.2v-3.5H280.4z"/>
		<path d="M306.9,1080.6c0,5.7,3.7,11.5,8.3,13.6l-1.7,2.3c-3.5-1.8-6.5-5.5-8-9.9c-1.4,4.7-4.4,8.6-8,10.5l-1.7-2.3
			c4.6-2.2,8.4-8.2,8.4-14.2v-5.6h2.8V1080.6z M321.3,1072.2v31.5h-2.8v-31.5H321.3z"/>
		<path d="M349.5,1074.5c0,8-5.5,13.8-14.5,16.5l-1.1-2.3c7.4-2.2,12.1-6.5,12.6-11.9h-11.3v-2.3H349.5z M358.3,1097.5
			c0,3.8-4,6.1-10.1,6.1c-6.1,0-10.1-2.3-10.1-6.1c0-3.8,4-6.1,10.1-6.1C354.3,1091.4,358.3,1093.7,358.3,1097.5z M355.5,1097.5
			c0-2.4-2.8-3.9-7.3-3.9c-4.5,0-7.3,1.4-7.3,3.9c0,2.4,2.8,3.8,7.3,3.8C352.6,1101.3,355.5,1099.9,355.5,1097.5z M362.5,1080.3v2.4
			h-4.6v8.3h-2.8v-18.8h2.8v8.1H362.5z"/>
		<path d="M383.3,1086.2c-5.2,1-9.9,1.4-14.5,1.4h-2.4v-13.8h2.8v11.4c4.4,0,8.8-0.4,13.8-1.3L383.3,1086.2z M369.4,1091.7H389v11.5
			h-19.6V1091.7z M372.1,1100.8h14v-6.9h-14V1100.8z M393.6,1081.8H389v8.2h-2.8v-17.7h2.8v7.2h4.6V1081.8z"/>
		<path d="M424,1090.1h-12.7v13.5h-2.9v-13.5h-12.6v-2.3h20.6c1-4.5,1-7.8,1-10.8v-0.4h-18.1v-2.3h20.9v2.7c0,2.9,0,6.3-0.9,10.8
			h4.6V1090.1z"/>
		<path d="M452.3,1077.8h-18.3v-2.3h7.7v-3.5h2.8v3.5h7.8V1077.8z M443.1,1090.8c-4.4,0-7.4-2.2-7.4-5.7c0-3.4,3-5.7,7.4-5.7
			c4.4,0,7.5,2.2,7.5,5.7C450.5,1088.6,447.5,1090.8,443.1,1090.8z M437.8,1093.6H458v10.1h-2.8v-7.7h-17.3V1093.6z M443.1,1088.6
			c2.8,0,4.8-1.4,4.8-3.5c0-2.1-1.9-3.4-4.8-3.4s-4.7,1.4-4.7,3.5C438.4,1087.3,440.2,1088.6,443.1,1088.6z M462.6,1083.3H458v8.6
			h-2.8v-19.6h2.8v8.6h4.6V1083.3z"/>
		<path d="M493,1087.7v2.3h-28.2v-2.3h12.7v-3.6h-9.1v-10.4h21.1v2.3h-18.3v5.8h18.5v2.3h-9.4v3.6H493z M489.6,1097.9
			c0,3.6-4,5.7-10.6,5.7c-6.7,0-10.7-2-10.7-5.7c0-3.6,4-5.7,10.7-5.7C485.5,1092.3,489.6,1094.3,489.6,1097.9z M486.7,1097.9
			c0-2.2-2.9-3.4-7.7-3.4c-4.9,0-7.8,1.2-7.8,3.4c0,2.2,2.9,3.4,7.8,3.4C483.8,1101.4,486.7,1100.1,486.7,1097.9z"/>
		<path d="M524.1,1097.4v2.3h-28.3v-2.3h12.7v-5.9h-9.1v-9.7h18.5v-4.9h-18.5v-2.3h21.3v9.6h-18.4v5.1h19.1v2.3h-10v5.9H524.1z"/>
		<path d="M535.1,1098.3h5.7v-19.1h-4.5v-2c2.3-0.4,3.9-1,5.3-1.8h2.4v23h5.1v2.7h-13.9V1098.3z"/>
		<path d="M564.9,1079.5c-1-1.2-2.5-2-4.1-2c-3.5,0-6.4,2.7-6.6,10.7c1.6-1.9,3.8-3.1,5.8-3.1c4.3,0,7,2.7,7,8.1
			c0,5-3.3,8.3-7.3,8.3c-4.9,0-8.5-4.2-8.5-12.7c0-10,4.5-13.9,9.4-13.9c2.6,0,4.5,1.1,5.9,2.6L564.9,1079.5z M564.1,1093.1
			c0-3.5-1.5-5.7-4.6-5.7c-1.6,0-3.5,0.9-5.2,3.3c0.4,5.3,2.3,8.2,5.5,8.2C562.2,1099,564.1,1096.6,564.1,1093.1z"/>
		<path d="M570.3,1094.6c0-3.4,2.4-5.8,4.7-7.1v-0.2c-1.9-1.3-3.4-3.2-3.4-5.9c0-3.9,3-6.5,7-6.5c4.3,0,7,2.8,7,6.8
			c0,2.7-1.9,5-3.4,6.2v0.2c2.2,1.3,4.3,3.2,4.3,6.7c0,3.7-3.2,6.7-8,6.7C573.8,1101.5,570.3,1098.6,570.3,1094.6z M583.4,1094.7
			c0-3.4-3.1-4.7-6.7-6.2c-2,1.3-3.5,3.4-3.5,5.8c0,2.7,2.3,4.7,5.3,4.7C581.4,1099.1,583.4,1097.3,583.4,1094.7z M582.8,1081.9
			c0-2.5-1.6-4.6-4.3-4.6c-2.3,0-4,1.7-4,4.2c0,3.1,2.7,4.4,5.7,5.6C581.9,1085.5,582.8,1083.8,582.8,1081.9z"/>
	</g>
	<g>
		<polygon points="721.7,575.8 598.7,575.8 659.2,396.6 659.3,396.4 659.3,239.9 656.3,239.9 656.3,395.9 595.6,575.8 362.9,575.8 
			362.9,239.9 359.9,239.9 359.9,575.8 40.2,575.8 40.2,578.8 359.9,578.8 359.9,921.4 362.9,921.4 362.9,578.8 594.6,578.8 
			507.5,837.1 507.4,837.3 507.4,921.4 510.4,921.4 510.4,837.8 597.7,578.8 721.7,578.8 		"/>
		<circle class="st0" cx="250.2" cy="626.4" r="16.4"/>
		<g>
			<path class="st0" d="M225.4,683.5h-11.3l-2.9,6.4h-4.3l13.1-28l12.6,28h-4.4L225.4,683.5z M223.8,679.8l-3.9-9l-4.1,9H223.8z"/>
			<path class="st0" d="M250.1,667.5l-3.2,1.9c-0.6-1-1.2-1.7-1.7-2.1c-0.6-0.4-1.3-0.5-2.2-0.5c-1.1,0-2,0.3-2.8,0.9
				c-0.7,0.6-1.1,1.4-1.1,2.3c0,1.3,1,2.3,2.9,3.1l2.6,1.1c2.1,0.9,3.7,1.9,4.7,3.2c1,1.2,1.5,2.8,1.5,4.6c0,2.4-0.8,4.4-2.4,6
				c-1.6,1.6-3.7,2.4-6.1,2.4c-2.3,0-4.2-0.7-5.7-2c-1.5-1.4-2.4-3.3-2.8-5.7l4-0.9c0.2,1.5,0.5,2.6,1,3.2c0.8,1.1,2,1.7,3.6,1.7
				c1.2,0,2.3-0.4,3.1-1.2c0.8-0.8,1.2-1.9,1.2-3.2c0-0.5-0.1-1-0.2-1.4c-0.1-0.4-0.4-0.8-0.7-1.2c-0.3-0.4-0.7-0.7-1.2-1
				c-0.5-0.3-1-0.6-1.7-0.9l-2.5-1.1c-3.6-1.5-5.4-3.8-5.4-6.7c0-2,0.8-3.6,2.3-5c1.5-1.3,3.4-2,5.7-2
				C246,663,248.4,664.5,250.1,667.5z"/>
			<path class="st0" d="M263.3,667.3v22.6h-4v-22.6h-6.1v-3.7h16.1v3.7H263.3z"/>
			<path class="st0" d="M281,678.5l-8.6-15h4.6l6,10.5l6-10.5h4.6l-8.6,15v11.4h-4V678.5z"/>
			<path class="st0" d="M195.1,711.3H206v0.9c0,2-0.2,3.7-0.7,5.3c-0.5,1.4-1.2,2.7-2.3,4c-2.5,2.8-5.6,4.1-9.3,4.1
				c-3.7,0-6.9-1.3-9.5-4c-2.6-2.7-3.9-5.9-3.9-9.6c0-3.8,1.3-7.1,4-9.7c2.7-2.7,5.9-4,9.8-4c2.1,0,4,0.4,5.8,1.3
				c1.7,0.8,3.4,2.2,5,4.1l-2.8,2.7c-2.2-2.9-4.8-4.3-7.9-4.3c-2.8,0-5.1,1-7,2.9c-1.9,1.9-2.8,4.3-2.8,7.1c0,2.9,1.1,5.4,3.2,7.3
				c2,1.8,4.1,2.6,6.4,2.6c2,0,3.7-0.7,5.3-2c1.6-1.3,2.4-2.9,2.6-4.8h-6.6V711.3z"/>
			<path class="st0" d="M224.3,718.6H213l-2.9,6.4h-4.3l13.1-28l12.6,28h-4.4L224.3,718.6z M222.7,714.9l-3.9-9l-4.1,9H222.7z"/>
			<path class="st0" d="M238.7,698.7v22.6h7.8v3.7h-11.7v-26.4H238.7z"/>
			<path class="st0" d="M254.2,698.7v22.6h7.8v3.7h-11.7v-26.4H254.2z"/>
			<path class="st0" d="M280.3,702.4h-10.6v6.3H280v3.7h-10.3v8.8h10.6v3.7h-14.6v-26.4h14.6V702.4z"/>
			<path class="st0" d="M293.8,713.8l8.2,11.2h-4.9l-7.5-10.8h-0.7v10.8h-4v-26.4h4.7c3.5,0,6,0.7,7.6,2c1.7,1.5,2.6,3.4,2.6,5.8
				c0,1.9-0.5,3.5-1.6,4.8C297,712.6,295.5,713.4,293.8,713.8z M288.8,710.8h1.3c3.8,0,5.7-1.4,5.7-4.3c0-2.7-1.8-4.1-5.5-4.1h-1.4
				V710.8z"/>
			<path class="st0" d="M309.4,713.7l-8.6-15h4.6l6,10.5l6-10.5h4.6l-8.6,15v11.4h-4V713.7z"/>
		</g>
		<g>
			<path d="M63.1,552.1v1.7H42.8v-1.7h9.1v-3.2h-6.4v-7.6h2v6h13.2v1.6h-6.8v3.2H63.1z M47.4,560.6h13.5v1.7H45.3v-6.7h2V560.6z"/>
			<path d="M77.7,544.7H65.2v-1.6h5.3v-2.7h2v2.7h5.1V544.7z M71.5,554.5c-3,0-5.1-1.7-5.1-4.3c0-2.5,2.1-4.2,5.1-4.2
				c3,0,5.1,1.7,5.1,4.2C76.6,552.8,74.5,554.5,71.5,554.5z M71.5,552.9c1.8,0,3.1-1.1,3.1-2.7c0-1.6-1.3-2.6-3.1-2.6
				s-3.1,1.1-3.1,2.6C68.4,551.8,69.7,552.9,71.5,552.9z M84.1,560.6v1.7H69.2V556h2v4.6H84.1z M81.5,546.3v-5.9h2.1v17.1h-2.1v-4.7
				h-3.8V551h3.8v-3h-3.8v-1.7H81.5z"/>
			<path d="M106,540.3v13.2h-2.1v-3.2h-5.7c-1,1.3-2.7,2-4.6,2c-3.3,0-5.7-2.2-5.7-5.4c0-3.1,2.4-5.4,5.7-5.4c1.9,0,3.6,0.8,4.6,2
				h5.6v-3.3L106,540.3z M97.4,547c0-2.1-1.6-3.6-3.8-3.6c-2.2,0-3.8,1.5-3.8,3.6c0,2.1,1.6,3.7,3.8,3.7
				C95.8,550.6,97.4,549.1,97.4,547z M91,554.8h15v8h-2.1v-6.3H91V554.8z M103.9,548.7v-3.4h-4.8c0.2,0.5,0.2,1.1,0.2,1.7
				c0,0.6-0.1,1.2-0.2,1.7H103.9z"/>
			<path d="M126.2,552.1h-10.4v-10.3h2v3.4h6.3v-3.4h2V552.1z M132.5,558.6c0,2.6-2.8,4.2-7.4,4.2c-4.6,0-7.4-1.5-7.4-4.2
				c0-2.6,2.8-4.2,7.4-4.2C129.7,554.4,132.5,555.9,132.5,558.6z M124.2,546.7h-6.3v3.7h6.3V546.7z M130.5,558.6
				c0-1.6-2-2.5-5.3-2.5c-3.3,0-5.3,0.9-5.3,2.5s2,2.5,5.3,2.5C128.4,561.1,130.5,560.2,130.5,558.6z M135.6,546v1.7h-3.3v6.1h-2
				v-13.5h2v5.6H135.6z"/>
			<path d="M148.5,552.8h-10.2v-10.4h10.2v2h5.1v-3.9h2.1v16.3h-2.1v-5.9h-5.1V552.8z M146.5,543.9h-6.2v7.2h6.2V543.9z
				 M156.2,560.6v1.7h-14.9v-7h2v5.3H156.2z M148.5,546v3.1h5.1V546H148.5z"/>
		</g>
		<g>
			<path d="M609.2,597.8c0,4.1,2.5,8.1,5.8,9.7l-1.2,1.6c-2.5-1.3-4.6-3.9-5.6-7.1c-1,3.3-3,6.1-5.6,7.5l-1.2-1.6
				c3.2-1.6,5.8-5.9,5.8-10.1v-4h2V597.8z M619.8,591.9v22.4h-2v-13.2h-5.2v-1.7h5.2v-7.6H619.8z"/>
			<path d="M634.9,603v2.1h6.5v5h-13.2v2.3h13.8v1.6h-15.8v-5.4h13.1v-2h-13.2v-1.5h6.6V603h-9.1v-1.6H644v1.6H634.9z M626,596
				c0-2.5,2.9-3.9,7.9-3.9c4.9,0,7.9,1.4,7.9,3.9s-2.9,3.9-7.9,3.9C628.9,599.9,626,598.5,626,596z M628.1,596
				c0,1.5,2.1,2.3,5.8,2.3c3.7,0,5.8-0.8,5.8-2.3s-2.1-2.3-5.8-2.3C630.2,593.7,628.1,594.5,628.1,596z"/>
			<path d="M652.8,598.2c0,3.6,1.7,7.4,4.6,9.2l-1.2,1.6c-2.1-1.3-3.6-3.7-4.4-6.4c-0.8,3-2.4,5.5-4.6,6.9l-1.3-1.5
				c3.1-1.8,4.9-5.8,4.9-9.7V594h2V598.2z M658.7,592.4h1.9v20.8h-1.9v-11.6H655v-1.7h3.7V592.4z M665.2,591.9v22.4h-1.9v-22.4
				H665.2z"/>
			<path d="M682.5,604.3c-4.6,0.8-10,0.9-14,0.9l-0.2-1.7c1.4,0,3,0,4.7,0v-4.8h2v4.8c2.4-0.1,5-0.3,7.3-0.6L682.5,604.3z
				 M678.2,601.2c0.5-2.6,0.6-4.5,0.6-5.9h-9.1v-1.7h11.1v1.2c0,1.5,0,3.7-0.6,6.6L678.2,601.2z M673.8,612.1h12.8v1.7h-14.9v-6.6h2
				V612.1z M689.2,599.2v1.7h-3.2v7.9h-2v-16.9h2v7.3H689.2z"/>
			<path d="M608.9,627.8c0,3.9,2.5,8,5.7,9.6l-1.3,1.6c-2.4-1.3-4.4-3.9-5.4-7c-1,3.3-3,6.1-5.6,7.4l-1.2-1.6
				c3.2-1.6,5.8-5.9,5.8-10v-4h2V627.8z M622.3,632.7h-3.7v11.6h-2v-22.4h2v9.1h3.7V632.7z"/>
			<path d="M634.9,624.3c0,6.4-2.6,12-10.1,15.7l-1.1-1.6c6-2.9,8.8-7.2,9.2-12.5h-8.2v-1.6H634.9z M642.2,621.9v22.4h-2v-11.7h-5.2
				v-1.7h5.2v-9H642.2z"/>
			<path d="M649.5,637.2c3.7,0,7-0.2,10.9-0.8l0.2,1.7c-4,0.7-7.4,0.8-11.3,0.8h-1.8v-8.6h8.2v-4.7h-8.3v-1.7h10.4v8h-8.3V637.2z
				 M664.5,621.8v22.5h-2v-22.5H664.5z"/>
		</g>
		<g>
			<path d="M394.3,544.4H381v-1.6h5.6v-2.5h2.1v2.5h5.6V544.4z M387.6,553.6c-3.2,0-5.3-1.6-5.3-4c0-2.4,2.2-4,5.3-4
				c3.2,0,5.4,1.6,5.4,4.1C393,552,390.8,553.6,387.6,553.6z M383.8,555.6h14.5v7.2h-2v-5.5h-12.5V555.6z M387.6,552
				c2,0,3.4-1,3.4-2.5c0-1.5-1.4-2.4-3.4-2.4s-3.4,1-3.4,2.5S385.6,552,387.6,552z M401.7,548.2h-3.3v6.1h-2v-14h2v6.2h3.3V548.2z"
				/>
			<path d="M423.6,551.4v1.6h-20.3v-1.6h9.1v-2.6h-6.6v-7.4h15.2v1.6h-13.2v4.1h13.3v1.6h-6.7v2.6H423.6z M421.1,558.7
				c0,2.6-2.9,4-7.6,4c-4.8,0-7.7-1.4-7.7-4c0-2.6,2.9-4,7.7-4C418.2,554.7,421.1,556.1,421.1,558.7z M419.1,558.7
				c0-1.6-2.1-2.4-5.6-2.4c-3.5,0-5.6,0.9-5.6,2.4c0,1.6,2.1,2.4,5.6,2.4C417,561.1,419.1,560.3,419.1,558.7z"/>
			<path d="M444.2,540.3v13.2h-2.1v-3.2h-5.7c-1,1.3-2.7,2-4.6,2c-3.3,0-5.7-2.2-5.7-5.4c0-3.1,2.4-5.4,5.7-5.4c1.9,0,3.6,0.8,4.6,2
				h5.6v-3.3L444.2,540.3z M435.6,547c0-2.1-1.6-3.6-3.8-3.6c-2.2,0-3.8,1.5-3.8,3.6c0,2.1,1.6,3.7,3.8,3.7
				C434,550.6,435.6,549.1,435.6,547z M429.2,554.8h15v8h-2.1v-6.3h-12.9V554.8z M442.1,548.7v-3.4h-4.8c0.1,0.5,0.2,1.1,0.2,1.7
				c0,0.6-0.1,1.2-0.2,1.7H442.1z"/>
		</g>
		<g>
			<path d="M186.4,744.5h-13.2v-1.6h5.6v-2.5h2v2.5h5.6V744.5z M179.7,753.8c-3.2,0-5.3-1.6-5.3-4c0-2.4,2.2-4,5.3-4
				c3.2,0,5.4,1.6,5.4,4.1C185.1,752.2,182.9,753.8,179.7,753.8z M175.9,755.7h14.5v7.2h-2v-5.5h-12.5V755.7z M179.7,752.2
				c2,0,3.4-1,3.4-2.5c0-1.5-1.4-2.4-3.4-2.4c-2,0-3.4,1-3.4,2.5S177.7,752.2,179.7,752.2z M193.8,748.4h-3.3v6.1h-2v-14h2v6.2h3.3
				V748.4z"/>
			<path d="M215.7,751.6v1.6h-20.3v-1.6h9.1V749H198v-7.4h15.2v1.6H200v4.1h13.3v1.6h-6.7v2.6H215.7z M213.2,758.9
				c0,2.6-2.9,4-7.6,4c-4.8,0-7.7-1.4-7.7-4c0-2.6,2.9-4,7.7-4C210.3,754.8,213.2,756.3,213.2,758.9z M211.2,758.9
				c0-1.6-2.1-2.4-5.6-2.4c-3.5,0-5.6,0.9-5.6,2.4c0,1.6,2.1,2.4,5.6,2.4C209.1,761.3,211.2,760.4,211.2,758.9z"/>
			<path d="M236.3,740.5v13.2h-2.1v-3.2h-5.7c-1,1.3-2.7,2-4.6,2c-3.3,0-5.7-2.2-5.7-5.4c0-3.1,2.4-5.4,5.7-5.4c1.9,0,3.6,0.8,4.6,2
				h5.6v-3.3L236.3,740.5z M227.7,747.1c0-2.1-1.6-3.6-3.8-3.6c-2.2,0-3.8,1.5-3.8,3.6c0,2.1,1.6,3.7,3.8,3.7
				C226.1,750.8,227.7,749.3,227.7,747.1z M221.3,754.9h15v8h-2.1v-6.3h-12.9V754.9z M234.2,748.8v-3.4h-4.8
				c0.2,0.5,0.2,1.1,0.2,1.7c0,0.6-0.1,1.2-0.2,1.7H234.2z"/>
			<path d="M244.5,759l1.1-1.5c1,1,2.4,2,4.5,2c2.1,0,3.9-1.6,3.9-4.3c0-2.6-1.5-4.2-3.8-4.2c-1.2,0-2,0.4-3,1.1l-1.2-0.7l0.6-8.6
				h8.9v1.9h-6.9l-0.5,5.3c0.8-0.4,1.6-0.7,2.7-0.7c3,0,5.5,1.8,5.5,5.8s-2.9,6.3-6,6.3C247.5,761.4,245.8,760.2,244.5,759z"/>
			<path d="M269.6,753.3h-10.1V742h2v3.9h6V742h2v4.8h5.2v-6.3h2.1v16.6h-2.1v-8.6h-5.2V753.3z M267.6,747.6h-6v4h6V747.6z
				 M277.4,760.7v1.7h-14.9v-6.9h2v5.3H277.4z"/>
			<path d="M295.7,752v2.1h6.5v4.9H289v2.1h13.8v1.5H287v-5.1h13.1v-1.9h-13.2v-1.5h6.7V752h-9.1v-1.6h20.2v1.6H295.7z M285.6,747.9
				c4.1-0.3,7.6-1.6,7.9-3.9h-6.9v-1.5h7v-2.1h2v2.1h7v1.5h-6.9c0.3,2.2,3.7,3.6,7.9,3.9l-0.6,1.5c-3.8-0.3-7-1.4-8.4-3.5
				c-1.4,2.1-4.7,3.2-8.5,3.5L285.6,747.9z"/>
			<path d="M327.2,753.3H318v9.7H316v-9.7h-9v-1.7h14.9c0.7-3.2,0.7-5.6,0.7-7.7v-0.3h-13v-1.6h15v1.9c0,2.1,0,4.5-0.6,7.7h3.3
				V753.3z"/>
		</g>
	</g>
	<g>
		<path d="M171,58.1h-20.2l-5.2,11.4H138l23.3-50l22.5,50h-7.8L171,58.1z M168.1,51.4l-7-16l-7.3,16H168.1z"/>
		<path d="M220,29.4l-5.8,3.4c-1.1-1.9-2.1-3.1-3.1-3.7c-1-0.7-2.3-1-3.9-1c-2,0-3.6,0.6-4.9,1.7c-1.3,1.1-2,2.5-2,4.1
			c0,2.3,1.7,4.1,5.1,5.5l4.7,1.9c3.8,1.5,6.6,3.4,8.4,5.7s2.7,5,2.7,8.2c0,4.3-1.4,7.9-4.3,10.7c-2.9,2.8-6.5,4.3-10.8,4.3
			c-4.1,0-7.5-1.2-10.1-3.6c-2.6-2.4-4.3-5.8-4.9-10.2l7.2-1.6c0.3,2.8,0.9,4.7,1.7,5.7c1.5,2,3.6,3,6.4,3c2.2,0,4.1-0.7,5.5-2.2
			s2.2-3.4,2.2-5.6c0-0.9-0.1-1.8-0.4-2.5c-0.3-0.8-0.7-1.5-1.2-2.1s-1.2-1.2-2.1-1.8c-0.9-0.6-1.9-1.1-3-1.6l-4.5-1.9
			c-6.4-2.7-9.7-6.7-9.7-12c0-3.5,1.4-6.5,4.1-8.9c2.7-2.4,6.1-3.6,10.1-3.6C212.7,21.5,216.9,24.1,220,29.4z"/>
		<path d="M248.4,29.1v40.4h-7.1V29.1h-10.8v-6.7h28.7v6.7H248.4z"/>
		<path d="M283.8,49.1l-15.4-26.7h8.2l10.8,18.8l10.8-18.8h8.2l-15.4,26.7v20.3h-7.1V49.1z"/>
		<path d="M361.5,45h19.5v1.6c0,3.5-0.4,6.7-1.2,9.4c-0.8,2.5-2.2,4.9-4.1,7.1c-4.4,4.9-9.9,7.4-16.7,7.4c-6.6,0-12.2-2.4-16.9-7.1
			c-4.7-4.8-7-10.5-7-17.2c0-6.8,2.4-12.6,7.2-17.4c4.8-4.8,10.6-7.2,17.4-7.2c3.7,0,7.1,0.8,10.3,2.3c3,1.5,6,3.9,9,7.3l-5.1,4.8
			c-3.9-5.1-8.6-7.7-14.1-7.7c-5,0-9.2,1.7-12.5,5.2C343.7,36.7,342,41,342,46c0,5.2,1.9,9.6,5.6,13c3.5,3.2,7.3,4.7,11.4,4.7
			c3.5,0,6.6-1.2,9.4-3.5c2.8-2.4,4.3-5.2,4.7-8.5h-11.7V45z"/>
		<path d="M420,58.1h-20.2l-5.2,11.4H387l23.3-50l22.5,50h-7.8L420,58.1z M417.1,51.4l-7-16l-7.3,16H417.1z"/>
		<path d="M452,22.4v40.4h13.8v6.7h-20.9V22.4H452z"/>
		<path d="M485.9,22.4v40.4h13.8v6.7h-20.9V22.4H485.9z"/>
		<path d="M538.7,29.1h-18.9v11.3h18.3v6.7h-18.3v15.7h18.9v6.7h-26V22.4h26V29.1z"/>
		<path d="M569,49.4l14.6,20.1h-8.7l-13.4-19.3h-1.3v19.3H553V22.4h8.3c6.2,0,10.7,1.2,13.5,3.5c3,2.6,4.6,6,4.6,10.3
			c0,3.3-1,6.2-2.9,8.6C574.6,47.2,572.1,48.8,569,49.4z M560.1,44h2.3c6.7,0,10.1-2.6,10.1-7.7c0-4.8-3.3-7.2-9.8-7.2h-2.5V44z"/>
		<path d="M601.4,49.1L586,22.4h8.2L605,41.2l10.8-18.8h8.2l-15.4,26.7v20.3h-7.1V49.1z"/>
	</g>
</g>
<g>
	<path d="M1383.7,58.1h-20.2l-5.2,11.4h-7.7l23.3-50l22.5,50h-7.8L1383.7,58.1z M1380.8,51.4l-7-16l-7.3,16H1380.8z"/>
	<path d="M1432.7,29.4l-5.8,3.4c-1.1-1.9-2.1-3.1-3.1-3.7c-1-0.7-2.3-1-3.9-1c-2,0-3.6,0.6-4.9,1.7c-1.3,1.1-2,2.5-2,4.1
		c0,2.3,1.7,4.1,5.1,5.5l4.7,1.9c3.8,1.5,6.6,3.4,8.4,5.7s2.7,5,2.7,8.2c0,4.3-1.4,7.9-4.3,10.7c-2.9,2.8-6.5,4.3-10.8,4.3
		c-4.1,0-7.5-1.2-10.1-3.6c-2.6-2.4-4.3-5.8-4.9-10.2l7.2-1.6c0.3,2.8,0.9,4.7,1.7,5.7c1.5,2,3.6,3,6.4,3c2.2,0,4.1-0.7,5.5-2.2
		s2.2-3.4,2.2-5.6c0-0.9-0.1-1.8-0.4-2.5c-0.3-0.8-0.7-1.5-1.2-2.1s-1.2-1.2-2.1-1.8c-0.9-0.6-1.9-1.1-3-1.6l-4.5-1.9
		c-6.4-2.7-9.7-6.7-9.7-12c0-3.5,1.4-6.5,4.1-8.9c2.7-2.4,6.1-3.6,10.1-3.6C1425.4,21.5,1429.6,24.1,1432.7,29.4z"/>
	<path d="M1461.1,29.1v40.4h-7.1V29.1h-10.8v-6.7h28.7v6.7H1461.1z"/>
	<path d="M1496.5,49.1l-15.4-26.7h8.2l10.8,18.8l10.8-18.8h8.2l-15.4,26.7v20.3h-7.1V49.1z"/>
	<path d="M1584.7,24.9v8.4c-4.1-3.4-8.4-5.2-12.7-5.2c-4.8,0-8.9,1.7-12.2,5.2c-3.3,3.5-5,7.7-5,12.7c0,4.9,1.7,9.1,5,12.5
		c3.3,3.4,7.4,5.1,12.3,5.1c2.5,0,4.6-0.4,6.4-1.2c1-0.4,2-1,3-1.6c1-0.7,2.1-1.5,3.3-2.5v8.6c-4.1,2.3-8.3,3.4-12.8,3.4
		c-6.7,0-12.5-2.3-17.2-7c-4.7-4.7-7.1-10.4-7.1-17.1c0-6,2-11.3,5.9-16c4.9-5.8,11.2-8.6,18.9-8.6
		C1576.7,21.5,1580.8,22.6,1584.7,24.9z"/>
	<path d="M1627.6,58.1h-20.2l-5.2,11.4h-7.7l23.3-50l22.5,50h-7.8L1627.6,58.1z M1624.7,51.4l-7-16l-7.3,16H1624.7z"/>
	<path d="M1652.5,69.5V22.4h7.1c3.2,0,5.7,0.2,7.5,0.7c1.9,0.5,3.5,1.3,4.8,2.5c1.3,1.2,2.4,2.7,3.1,4.5c0.8,1.8,1.2,3.6,1.2,5.5
		c0,3.4-1.3,6.2-3.9,8.6c2.5,0.9,4.5,2.3,5.9,4.5c1.5,2.1,2.2,4.6,2.2,7.4c0,3.7-1.3,6.8-3.9,9.3c-1.6,1.6-3.3,2.7-5.3,3.3
		c-2.1,0.6-4.8,0.9-8,0.9H1652.5z M1659.6,42.6h2.2c2.6,0,4.6-0.6,5.8-1.8c1.2-1.2,1.8-2.9,1.8-5.2c0-2.2-0.6-3.9-1.9-5
		c-1.3-1.1-3.1-1.7-5.5-1.7h-2.5V42.6z M1659.6,62.8h4.4c3.2,0,5.6-0.6,7.1-1.9c1.6-1.4,2.4-3.1,2.4-5.2c0-2-0.8-3.7-2.3-5.1
		c-1.5-1.4-4.1-2-8-2h-3.6V62.8z"/>
	<path d="M1698.4,22.4v47.1h-7.1V22.4H1698.4z"/>
	<path d="M1710.9,69.5V19.2l34.3,35.9V22.4h7.1v49.9L1718,36.5v33H1710.9z"/>
</g>
<g>
	<circle class="st0" cx="1580.2" cy="528.5" r="16.4"/>
	<g>
		<path d="M1536.8,444.2c0,6.4-2.9,12.1-10.2,15.8l-1.1-1.6c5.7-2.9,8.8-7.2,9.3-12.5h-8.2v-1.7H1536.8z M1546.2,452.6h-3.6v11.6h-2
			v-22.4h2v9.1h3.6V452.6z"/>
		<path d="M1561.1,453.5c-3.5,0.6-6.5,0.8-10.6,0.8h-1.8v-6.5h8v-3h-8.1v-1.7h10.1v6.2h-8v3.2c3.9,0,6.8-0.1,10.2-0.7L1561.1,453.5z
			 M1550.5,456.6h14.6v7.6h-2v-5.9h-12.5V456.6z M1568.4,449.2h-3.3v6.2h-2v-13.6h2v5.7h3.3V449.2z"/>
		<path d="M1578,447.8c0,4.1,2.7,8.2,6,9.7l-1.2,1.6c-2.5-1.2-4.7-3.9-5.8-7.1c-1,3.4-3.2,6.2-5.8,7.5l-1.2-1.7
			c3.3-1.6,6-5.9,6-10.1v-4h2V447.8z M1588.4,441.8v22.5h-2v-22.5H1588.4z"/>
		<path d="M1604.5,454.2c-2.5-0.8-4.5-2.6-5.4-4.8c-0.9,2.5-3,4.5-5.6,5.5l-1-1.6c3.4-1.2,5.6-4.1,5.6-7.3v-0.9h-5v-1.6h12v1.6h-4.9
			v0.9c0,2.9,2.1,5.5,5.4,6.6L1604.5,454.2z M1610.1,460c0,2.6-2.8,4.1-7.4,4.1c-4.6,0-7.4-1.5-7.4-4.1c0-2.6,2.8-4.1,7.4-4.1
			C1607.3,455.9,1610.1,457.4,1610.1,460z M1608,460c0-1.6-2-2.5-5.3-2.5c-3.3,0-5.3,0.9-5.3,2.5c0,1.6,2,2.5,5.3,2.5
			C1606,462.5,1608,461.6,1608,460z M1613.2,447.5v1.7h-3.3v6.1h-2v-13.5h2v5.6H1613.2z"/>
		<path d="M1633.3,441.8V455h-2.1v-3.2h-5.7c-1,1.3-2.7,2-4.6,2c-3.3,0-5.7-2.2-5.7-5.4c0-3.1,2.4-5.4,5.7-5.4c1.9,0,3.6,0.8,4.6,2
			h5.6v-3.3L1633.3,441.8z M1624.7,448.4c0-2.1-1.6-3.6-3.8-3.6c-2.2,0-3.8,1.5-3.8,3.6c0,2.1,1.6,3.7,3.8,3.7
			C1623.1,452.1,1624.7,450.6,1624.7,448.4z M1618.3,456.2h15v8h-2.1v-6.3h-12.9V456.2z M1631.2,450.1v-3.4h-4.8
			c0.1,0.5,0.2,1.1,0.2,1.7c0,0.6-0.1,1.2-0.2,1.7H1631.2z"/>
		<path d="M1551,485.3h-2.4v5h-2.2v-5h-8v-1.5l7.6-11.8h2.5v11.4h2.4V485.3z M1546.4,483.5v-5.6c0-0.9,0.1-2.4,0.1-3.3h-0.1
			c-0.4,0.9-0.9,1.8-1.5,2.7l-4.2,6.2H1546.4z"/>
		<path d="M1563.7,482.5h-10.1v-11.3h2v3.9h6v-3.9h2v4.8h5.2v-6.3h2.1v16.6h-2.1v-8.6h-5.2V482.5z M1561.7,476.9h-6v4h6V476.9z
			 M1571.5,490v1.7h-14.9v-6.9h2v5.3H1571.5z"/>
		<path d="M1589.7,481.3v2.1h6.5v4.9h-13.2v2.1h13.8v1.5h-15.8v-5.1h13.1v-1.9H1581v-1.5h6.7v-2.1h-9.1v-1.6h20.2v1.6H1589.7z
			 M1579.6,477.2c4.1-0.3,7.6-1.6,7.9-3.9h-6.9v-1.5h7v-2.1h2.1v2.1h7v1.5h-6.9c0.3,2.2,3.7,3.6,7.9,3.9l-0.6,1.5
			c-3.7-0.3-7-1.4-8.4-3.5c-1.4,2.1-4.7,3.2-8.5,3.5L1579.6,477.2z"/>
		<path d="M1621.2,482.5h-9.1v9.7h-2.1v-9.7h-9v-1.7h14.9c0.7-3.2,0.7-5.6,0.7-7.7v-0.3h-13v-1.6h15v1.9c0,2.1,0,4.5-0.6,7.7h3.3
			V482.5z"/>
	</g>
	<g>
		<path class="st0" d="M1555.5,384.6h-11.3l-2.9,6.4h-4.3l13.1-28l12.6,28h-4.4L1555.5,384.6z M1553.9,380.8l-3.9-9l-4.1,9H1553.9z"
			/>
		<path class="st0" d="M1580.2,368.5l-3.2,1.9c-0.6-1-1.2-1.7-1.7-2.1c-0.6-0.4-1.3-0.5-2.2-0.5c-1.1,0-2,0.3-2.8,0.9
			c-0.7,0.6-1.1,1.4-1.1,2.3c0,1.3,1,2.3,2.9,3.1l2.6,1.1c2.1,0.9,3.7,1.9,4.7,3.2c1,1.2,1.5,2.8,1.5,4.6c0,2.4-0.8,4.4-2.4,6
			c-1.6,1.6-3.7,2.4-6.1,2.4c-2.3,0-4.2-0.7-5.7-2c-1.5-1.4-2.4-3.3-2.8-5.7l4-0.9c0.2,1.5,0.5,2.6,1,3.2c0.8,1.1,2,1.7,3.6,1.7
			c1.2,0,2.3-0.4,3.1-1.2c0.8-0.8,1.2-1.9,1.2-3.2c0-0.5-0.1-1-0.2-1.4c-0.1-0.4-0.4-0.8-0.7-1.2c-0.3-0.4-0.7-0.7-1.2-1
			c-0.5-0.3-1-0.6-1.7-0.9l-2.5-1.1c-3.6-1.5-5.4-3.8-5.4-6.7c0-2,0.8-3.6,2.3-5c1.5-1.3,3.4-2,5.7-2
			C1576.1,364.1,1578.5,365.6,1580.2,368.5z"/>
		<path class="st0" d="M1593.4,368.3V391h-4v-22.6h-6.1v-3.7h16.1v3.7H1593.4z"/>
		<path class="st0" d="M1611.1,379.6l-8.6-15h4.6l6,10.5l6.1-10.5h4.6l-8.6,15V391h-4V379.6z"/>
		<path class="st0" d="M1547.4,401.1v4.7c-2.3-1.9-4.7-2.9-7.1-2.9c-2.7,0-5,1-6.9,2.9c-1.9,1.9-2.8,4.3-2.8,7.1
			c0,2.8,0.9,5.1,2.8,7c1.9,1.9,4.2,2.9,6.9,2.9c1.4,0,2.6-0.2,3.6-0.7c0.5-0.2,1.1-0.5,1.7-0.9c0.6-0.4,1.2-0.9,1.9-1.4v4.8
			c-2.3,1.3-4.7,1.9-7.2,1.9c-3.8,0-7-1.3-9.7-3.9c-2.7-2.7-4-5.9-4-9.6c0-3.4,1.1-6.4,3.3-9c2.7-3.2,6.3-4.8,10.6-4.8
			C1542.9,399.2,1545.2,399.8,1547.4,401.1z"/>
		<path class="st0" d="M1568.6,419.7h-11.3l-2.9,6.4h-4.3l13.1-28l12.6,28h-4.4L1568.6,419.7z M1567,415.9l-3.9-9l-4.1,9H1567z"/>
		<path class="st0" d="M1579,426.1v-26.4h4c1.8,0,3.2,0.1,4.2,0.4c1.1,0.3,2,0.7,2.7,1.4c0.7,0.7,1.3,1.5,1.8,2.5
			c0.4,1,0.7,2,0.7,3.1c0,1.9-0.7,3.5-2.2,4.8c1.4,0.5,2.5,1.3,3.3,2.5c0.8,1.2,1.2,2.6,1.2,4.1c0,2.1-0.7,3.8-2.2,5.2
			c-0.9,0.9-1.9,1.5-3,1.8c-1.2,0.3-2.7,0.5-4.5,0.5H1579z M1583,411h1.2c1.5,0,2.6-0.3,3.3-1c0.7-0.7,1-1.6,1-2.9
			c0-1.2-0.4-2.2-1.1-2.8c-0.7-0.6-1.7-1-3.1-1h-1.4V411z M1583,422.3h2.5c1.8,0,3.1-0.4,4-1.1c0.9-0.8,1.3-1.7,1.3-2.9
			c0-1.1-0.4-2.1-1.3-2.9c-0.8-0.8-2.3-1.1-4.5-1.1h-2V422.3z"/>
		<path class="st0" d="M1603.7,399.7v26.4h-4v-26.4H1603.7z"/>
		<path class="st0" d="M1609.3,426.1v-28.2l19.2,20.1v-18.3h4v28l-19.2-20.1v18.5H1609.3z"/>
	</g>
	<g>
		<path d="M1231.7,554.7h-9.2v8.1h-2v-8.1h-9V553h20.2L1231.7,554.7z M1229.9,550.5c-3.5-0.6-6.8-2.5-8.3-5.2
			c-1.4,2.7-4.8,4.6-8.3,5.2l-0.8-1.6c4.1-0.6,8-3.3,8-6.5v-1.2h2.2v1.2c0,3.1,4,5.9,8.1,6.5L1229.9,550.5z"/>
		<path d="M1241.7,546.3c0,4.1,2.5,8.1,5.8,9.7l-1.2,1.6c-2.5-1.3-4.6-3.9-5.6-7.1c-1,3.3-3,6.1-5.6,7.5l-1.2-1.6
			c3.2-1.6,5.8-5.9,5.8-10.1v-4h2V546.3z M1252.3,540.3v22.4h-2v-13.2h-5.2v-1.7h5.2v-7.6H1252.3z"/>
		<path d="M1274.7,540.3v13.2h-2.1v-3.2h-5.7c-1.1,1.3-2.7,2-4.6,2c-3.3,0-5.7-2.2-5.7-5.4c0-3.1,2.4-5.4,5.7-5.4
			c1.9,0,3.6,0.8,4.6,2h5.6v-3.3L1274.7,540.3z M1266.1,547c0-2.1-1.6-3.6-3.8-3.6c-2.2,0-3.8,1.5-3.8,3.6c0,2.1,1.6,3.7,3.8,3.7
			C1264.5,550.6,1266.1,549.1,1266.1,547z M1259.7,554.8h15v8h-2.1v-6.3h-12.9V554.8z M1272.6,548.7v-3.4h-4.8
			c0.1,0.5,0.2,1.1,0.2,1.7c0,0.6-0.1,1.2-0.2,1.7H1272.6z"/>
		<path d="M1294.8,552.1h-10.4v-10.3h2v3.4h6.3v-3.4h2V552.1z M1301.2,558.6c0,2.6-2.8,4.2-7.4,4.2c-4.6,0-7.4-1.5-7.4-4.2
			c0-2.6,2.8-4.2,7.4-4.2C1298.4,554.4,1301.2,555.9,1301.2,558.6z M1292.8,546.7h-6.3v3.7h6.3V546.7z M1299.1,558.6
			c0-1.6-2-2.5-5.3-2.5c-3.3,0-5.3,0.9-5.3,2.5s2,2.5,5.3,2.5C1297.1,561.1,1299.1,560.2,1299.1,558.6z M1304.3,546v1.7h-3.3v6.1h-2
			v-13.5h2v5.6H1304.3z"/>
		<path d="M1317.2,552.8h-10.2v-10.4h10.2v2h5.1v-3.9h2.1v16.3h-2.1v-5.9h-5.1V552.8z M1315.2,543.9h-6.2v7.2h6.2V543.9z
			 M1324.9,560.6v1.7H1310v-7h2v5.3H1324.9z M1317.2,546v3.1h5.1V546H1317.2z"/>
	</g>
	<g>
		<path d="M1789.8,597.7c-1.4,3.6-4.8,6.2-9.7,7.6l-0.8-1.6c5.3-1.6,8.7-4.6,9-8.4h-7.9v-1.6h10.1c0,0.8-0.1,1.6-0.2,2.4h5.1v-4.1
			h2.1v13.4h-2.1v-2.9h-5.9v-1.7h5.9v-3H1789.8z M1797.6,609.9c0,2.7-2.9,4.3-7.4,4.3s-7.4-1.6-7.4-4.3c0-2.7,2.9-4.3,7.4-4.3
			S1797.6,607.2,1797.6,609.9z M1795.6,609.9c0-1.7-2.1-2.7-5.4-2.7s-5.4,1-5.4,2.7c0,1.7,2.1,2.7,5.4,2.7
			S1795.6,611.6,1795.6,609.9z"/>
		<path d="M1813.7,603.1c-2.6-0.7-4.6-2.1-5.6-4.1c-1,2.2-3.1,3.8-5.8,4.5l-0.9-1.6c3.3-0.9,5.7-3.1,5.7-5.8v-0.4h-5v-1.6h5v-2.4h2
			v2.4h4.9v1.6h-4.9v0.4c0,2.4,2.3,4.6,5.5,5.4L1813.7,603.1z M1806.6,612.4h13v1.6h-15v-5.5h12.1v-2.1h-12.2v-1.6h14.2v5.2h-12.2
			V612.4z M1822.1,596.9v1.7h-3.3v5.1h-2v-11.8h2v5H1822.1z"/>
		<path d="M1835,603.8h-10.1v-10.5h2v3.6h6v-3.6h2v2.3h5.2v-3.6h2.1v13.6h-2.1v-3.7h-5.2V603.8z M1833,598.5h-6v3.7h6V598.5z
			 M1842.3,610.1c0,2.6-2.8,4.2-7.5,4.2c-4.6,0-7.4-1.5-7.4-4.2s2.8-4.2,7.4-4.2C1839.4,605.9,1842.3,607.4,1842.3,610.1z
			 M1840.3,610.1c0-1.6-2.1-2.6-5.4-2.6c-3.3,0-5.4,1-5.4,2.6c0,1.6,2,2.6,5.4,2.6C1838.2,612.7,1840.3,611.7,1840.3,610.1z
			 M1835,597.2v2.9h5.2v-2.9H1835z"/>
		<path d="M1852.5,603.8c-2.2,0.1-4.4,0.1-6.2,0.1l-0.3-1.7c4.1,0,9.7-0.1,14.4-0.6l0.2,1.5c-2,0.3-4,0.5-6.1,0.6v4.4h-2V603.8z
			 M1847.8,596.7c0-2.3,2.2-3.9,5.5-3.9s5.5,1.5,5.5,3.9c0,2.4-2.2,3.9-5.5,3.9S1847.8,599.1,1847.8,596.7z M1865.1,612.1v1.7h-15.8
			v-6.5h2v4.8H1865.1z M1849.7,596.7c0,1.4,1.5,2.4,3.6,2.4s3.6-0.9,3.6-2.4c0-1.4-1.5-2.4-3.6-2.4S1849.7,595.2,1849.7,596.7z
			 M1862.4,605.1v-13.2h2.1v17.1h-2.1v-2.3h-4.5v-1.5H1862.4z"/>
		<path d="M1887,591.9v13.2h-2.1v-3.2h-5.7c-1,1.3-2.7,2-4.6,2c-3.3,0-5.7-2.2-5.7-5.4c0-3.1,2.4-5.4,5.7-5.4c1.9,0,3.6,0.8,4.6,2
			h5.6v-3.3L1887,591.9z M1878.4,598.5c0-2.1-1.6-3.6-3.8-3.6c-2.2,0-3.8,1.5-3.8,3.6c0,2.1,1.6,3.7,3.8,3.7
			C1876.8,602.2,1878.4,600.6,1878.4,598.5z M1872,606.3h15v8h-2.1V608H1872V606.3z M1884.9,600.2v-3.4h-4.8
			c0.2,0.5,0.2,1.1,0.2,1.7c0,0.6-0.1,1.2-0.2,1.7H1884.9z"/>
	</g>
	<g>
		<path d="M1390.4,594.3c0,6.4-2.9,12.1-10.2,15.8l-1.1-1.6c5.7-2.9,8.8-7.2,9.3-12.5h-8.2v-1.7H1390.4z M1399.8,602.7h-3.6v11.6h-2
			v-22.4h2v9.1h3.6V602.7z"/>
		<path d="M1414.7,603.6c-3.5,0.6-6.5,0.8-10.6,0.8h-1.8v-6.5h8v-3h-8.1v-1.7h10.1v6.2h-8v3.2c3.9,0,6.8-0.1,10.2-0.7L1414.7,603.6z
			 M1404.2,606.7h14.6v7.6h-2v-5.9h-12.5V606.7z M1422.1,599.3h-3.3v6.2h-2v-13.6h2v5.7h3.3V599.3z"/>
		<path d="M1430.9,597.8c0,4.1,2.7,8.2,6,9.7l-1.2,1.6c-2.5-1.2-4.7-3.9-5.8-7.1c-1,3.4-3.2,6.2-5.8,7.5l-1.2-1.7
			c3.3-1.6,6-5.9,6-10.1v-4h2V597.8z M1441.3,591.9v22.5h-2v-22.5H1441.3z"/>
		<path d="M1456.9,604.3c-2.5-0.8-4.5-2.6-5.4-4.8c-0.9,2.5-3,4.5-5.6,5.5l-1-1.6c3.4-1.2,5.6-4.1,5.6-7.3v-0.9h-5v-1.6h12v1.6h-4.9
			v0.9c0,2.9,2.1,5.5,5.4,6.6L1456.9,604.3z M1462.5,610.1c0,2.6-2.8,4.1-7.4,4.1c-4.6,0-7.4-1.5-7.4-4.1c0-2.6,2.8-4.1,7.4-4.1
			C1459.7,606,1462.5,607.5,1462.5,610.1z M1460.4,610.1c0-1.6-2-2.5-5.3-2.5c-3.3,0-5.3,0.9-5.3,2.5c0,1.6,2,2.5,5.3,2.5
			C1458.4,612.6,1460.4,611.7,1460.4,610.1z M1465.6,597.5v1.7h-3.3v6.1h-2v-13.5h2v5.6H1465.6z"/>
		<path d="M1485.7,591.9v13.2h-2.1v-3.2h-5.7c-1.1,1.3-2.7,2-4.6,2c-3.3,0-5.7-2.2-5.7-5.4c0-3.1,2.4-5.4,5.7-5.4
			c1.9,0,3.6,0.8,4.6,2h5.6v-3.3L1485.7,591.9z M1477.1,598.5c0-2.1-1.6-3.6-3.8-3.6c-2.2,0-3.8,1.5-3.8,3.6c0,2.1,1.6,3.7,3.8,3.7
			C1475.5,602.2,1477.1,600.6,1477.1,598.5z M1470.7,606.3h15v8h-2.1V608h-12.9V606.3z M1483.6,600.2v-3.4h-4.8
			c0.1,0.5,0.2,1.1,0.2,1.7c0,0.6-0.1,1.2-0.2,1.7H1483.6z"/>
	</g>
	<polygon points="1892.9,575.8 1766.4,575.8 1766.4,239.9 1763.4,239.9 1763.4,575.8 1503.7,575.8 1503.7,239.9 1500.7,239.9 
		1500.7,575.8 1211.4,575.8 1211.4,578.8 1500.7,578.8 1482.6,921.4 1485.6,921.5 1503.7,578.8 1763.4,578.8 1763.4,921.4 
		1766.4,921.4 1766.4,578.8 1892.9,578.8 	"/>
</g>
</svg>
