<?xml version="1.0" encoding="utf-8"?>
<!-- Generator: Adobe Illustrator 25.0.1, SVG Export Plug-In . SVG Version: 6.00 Build 0)  -->
<svg version="1.1" id="Layer_1" xmlns="http://www.w3.org/2000/svg" xmlns:xlink="http://www.w3.org/1999/xlink" x="0px" y="0px"
	 viewBox="0 0 761.9 1126.8" style="enable-background:new 0 0 761.9 1126.8;" xml:space="preserve">
<style type="text/css">
	.st0{fill:#0D0D16;}
</style>
<g>
	<g>
		<path d="M191.4,1080.5c0,5.7,3.6,11.4,8.1,13.6l-1.7,2.3c-3.6-1.8-6.4-5.5-7.9-9.9c-1.4,4.7-4.3,8.6-7.8,10.5l-1.8-2.3
			c4.6-2.3,8.1-8.3,8.1-14.1v-5.6h2.9V1080.5z M206.3,1072.2v31.4h-2.9v-18.4h-7.3v-2.3h7.3v-10.6H206.3z"/>
		<path d="M227.4,1087.8v2.9h9.1v7.1h-18.4v3.2h19.4v2.2h-22.2v-7.5h18.4v-2.8h-18.5v-2.2h9.3v-2.9h-12.7v-2.3h28.4v2.3H227.4z
			 M214.9,1078c0-3.5,4.1-5.5,11-5.5c6.9,0,11,1.9,11,5.5c0,3.5-4.1,5.4-11,5.4C219.1,1083.4,214.9,1081.5,214.9,1078z M217.9,1078
			c0,2.1,2.9,3.3,8.1,3.3c5.1,0,8.1-1.2,8.1-3.3c0-2.1-2.9-3.3-8.1-3.3C220.8,1074.7,217.9,1075.9,217.9,1078z"/>
		<path d="M271.5,1088.8v2.3h-28.4v-2.3H271.5z M246.3,1094.1h21.6v9.5h-2.9v-7.2h-18.7V1094.1z M268.2,1085.8h-21.4V1073H268v2.2
			h-18.3v3h17.5v2.2h-17.5v3.2h18.5V1085.8z"/>
		<path d="M290.1,1087.4H276v-13.7h2.8v4.5h8.5v-4.4h2.8v3h7.2v-4.4h2.9v16.4h-2.9v-4h-7.2V1087.4z M287.3,1080.4h-8.5v4.7h8.5
			V1080.4z M301.4,1100.9v2.3h-21.4v-7.8h17.3v-3H280v-2.3h20.2v7.5h-17.3v3.3H301.4z M290.1,1078.9v3.5h7.2v-3.5H290.1z"/>
		<path d="M316.9,1080.6c0,5.7,3.7,11.5,8.4,13.6l-1.7,2.3c-3.6-1.8-6.6-5.5-8.1-9.9c-1.4,4.7-4.4,8.6-8.1,10.5l-1.8-2.3
			c4.6-2.2,8.4-8.2,8.4-14.2v-5.6h2.8V1080.6z M331.4,1072.2v31.5h-2.9v-31.5H331.4z"/>
		<path d="M372.4,1087.8v2.3H344v-2.3h12.7v-4.6h2.9v4.6H372.4z M369.6,1084.8c-4.8-0.8-9.4-3.3-11.4-6.9c-2,3.6-6.6,6.1-11.4,6.9
			l-1.1-2.3c5.6-0.8,11-4.3,11-8.4v-1.4h2.9v1.4c0,4.2,5.4,7.7,11,8.4L369.6,1084.8z M369,1098.1c0,3.5-4,5.4-10.7,5.4
			s-10.7-1.9-10.7-5.4c0-3.5,4-5.4,10.7-5.4S369,1094.6,369,1098.1z M366.1,1098.1c0-2.1-2.9-3.2-7.8-3.2c-5,0-7.8,1.2-7.8,3.2
			c0,2.1,2.9,3.2,7.8,3.2C363.2,1101.4,366.1,1100.2,366.1,1098.1z"/>
		<path d="M389.9,1093c1.6-0.1,3.3-0.2,4.8-0.5l0.2,2.1c-6.6,1-14,1.2-19.6,1.2l-0.4-2.4c1.3,0,2.7,0,4.2,0v-15.5h-3.4v-2.3h17.5
			v2.3h-3.4V1093z M381.9,1093.3c1.7,0,3.4-0.1,5.1-0.2v-15.3h-5.1V1093.3z M404.7,1087.1h-5.2v16.5h-2.9v-31.4h2.9v12.5h5.2V1087.1
			z"/>
		<path d="M435.1,1090.1h-12.8v13.5h-2.9v-13.5h-12.7v-2.3h20.8c1-4.5,1-7.8,1-10.8v-0.4h-18.3v-2.3h21.1v2.7c0,2.9,0,6.3-0.9,10.8
			h4.7V1090.1z"/>
		<path d="M461,1075.6c0,8.9-4.1,17-14.2,22.1l-1.6-2.2c8-4,12.3-10,13-17.5h-11.5v-2.4H461z M474.2,1087.3h-5v16.3h-2.9v-31.4h2.9
			v12.7h5V1087.3z"/>
		<path d="M495.1,1088.6c-5,0.8-9.1,1.1-14.9,1.1h-2.5v-9.1h11.2v-4.2h-11.3v-2.3h14.1v8.7h-11.2v4.5c5.5,0,9.5-0.2,14.3-1
			L495.1,1088.6z M480.3,1093h20.4v10.6h-2.9v-8.3h-17.5V1093z M505.3,1082.6h-4.7v8.7h-2.9v-19.1h2.9v8h4.7V1082.6z"/>
		<path d="M536.1,1087.7v2.3h-28.4v-2.3h12.8v-3.6h-9.2v-10.4h21.3v2.3h-18.4v5.8h18.7v2.3h-9.5v3.6H536.1z M532.6,1097.9
			c0,3.6-4.1,5.7-10.7,5.7c-6.7,0-10.8-2-10.8-5.7c0-3.6,4.1-5.7,10.8-5.7C528.5,1092.3,532.6,1094.3,532.6,1097.9z M529.6,1097.9
			c0-2.2-2.9-3.4-7.8-3.4c-5,0-7.9,1.2-7.9,3.4c0,2.2,2.9,3.4,7.9,3.4C526.7,1101.4,529.6,1100.1,529.6,1097.9z"/>
		<path d="M547.8,1096.8c1.1,1.2,2.7,2,4.3,2c3.3,0,6.2-2.7,6.4-10.7c-1.5,1.9-3.7,3.2-5.9,3.2c-4.3,0-7.1-2.8-7.1-8.1
			c0-5,3.4-8.3,7.4-8.3c4.9,0,8.6,4.1,8.6,12.2c0,10.4-4.5,14.4-9.3,14.4c-2.8,0-4.7-1.1-6.2-2.6L547.8,1096.8z M558.6,1085.5
			c-0.3-5.3-2.3-8.1-5.6-8.1c-2.5,0-4.3,2.3-4.3,5.8c0,3.5,1.5,5.7,4.6,5.7C554.9,1088.9,556.8,1087.9,558.6,1085.5z"/>
		<path d="M566.4,1096.8c1.1,1.2,2.7,2,4.3,2c3.3,0,6.2-2.7,6.4-10.7c-1.5,1.9-3.7,3.2-5.9,3.2c-4.3,0-7.1-2.8-7.1-8.1
			c0-5,3.4-8.3,7.4-8.3c4.9,0,8.6,4.1,8.6,12.2c0,10.4-4.5,14.4-9.3,14.4c-2.8,0-4.7-1.1-6.2-2.6L566.4,1096.8z M577.1,1085.5
			c-0.4-5.3-2.3-8.1-5.6-8.1c-2.4,0-4.3,2.3-4.3,5.8c0,3.5,1.5,5.7,4.6,5.7C573.5,1088.9,575.4,1087.9,577.1,1085.5z"/>
	</g>
	<g>
		<path d="M212.5,58.1h-20.2l-5.2,11.4h-7.7l23.3-50l22.5,50h-7.8L212.5,58.1z M209.6,51.4l-7-16l-7.3,16H209.6z"/>
		<path d="M261.5,29.4l-5.8,3.4c-1.1-1.9-2.1-3.1-3.1-3.7c-1-0.7-2.3-1-3.9-1c-2,0-3.6,0.6-4.9,1.7c-1.3,1.1-2,2.5-2,4.1
			c0,2.3,1.7,4.1,5.1,5.5l4.7,1.9c3.8,1.5,6.6,3.4,8.4,5.7s2.7,5,2.7,8.2c0,4.3-1.4,7.9-4.3,10.7c-2.9,2.8-6.5,4.3-10.8,4.3
			c-4.1,0-7.5-1.2-10.1-3.6c-2.6-2.4-4.3-5.8-4.9-10.2l7.2-1.6c0.3,2.8,0.9,4.7,1.7,5.7c1.5,2,3.6,3,6.4,3c2.2,0,4.1-0.7,5.5-2.2
			s2.2-3.4,2.2-5.6c0-0.9-0.1-1.8-0.4-2.5c-0.3-0.8-0.7-1.5-1.2-2.1s-1.2-1.2-2.1-1.8c-0.9-0.6-1.9-1.1-3-1.6l-4.5-1.9
			c-6.4-2.7-9.7-6.7-9.7-12c0-3.5,1.4-6.5,4.1-8.9c2.7-2.4,6.1-3.6,10.1-3.6C254.2,21.5,258.4,24.1,261.5,29.4z"/>
		<path d="M289.9,29.1v40.4h-7.1V29.1h-10.8v-6.7h28.7v6.7H289.9z"/>
		<path d="M325.2,49.1l-15.4-26.7h8.2l10.8,18.8l10.8-18.8h8.2l-15.4,26.7v20.3h-7.1V49.1z"/>
		<path d="M413.5,24.9v8.4c-4.1-3.4-8.4-5.2-12.7-5.2c-4.8,0-8.9,1.7-12.2,5.2c-3.3,3.5-5,7.7-5,12.7c0,4.9,1.7,9.1,5,12.5
			c3.3,3.4,7.4,5.1,12.3,5.1c2.5,0,4.6-0.4,6.4-1.2c1-0.4,2-1,3-1.6c1-0.7,2.1-1.5,3.3-2.5v8.6c-4.1,2.3-8.3,3.4-12.8,3.4
			c-6.7,0-12.5-2.3-17.2-7c-4.7-4.7-7.1-10.4-7.1-17.1c0-6,2-11.3,5.9-16c4.9-5.8,11.2-8.6,18.9-8.6
			C405.5,21.5,409.6,22.6,413.5,24.9z"/>
		<path d="M456.4,58.1h-20.2L431,69.5h-7.7l23.3-50l22.5,50h-7.8L456.4,58.1z M453.5,51.4l-7-16l-7.3,16H453.5z"/>
		<path d="M481.2,69.5V22.4h7.1c3.2,0,5.7,0.2,7.5,0.7c1.9,0.5,3.5,1.3,4.8,2.5c1.3,1.2,2.4,2.7,3.1,4.5c0.8,1.8,1.2,3.6,1.2,5.5
			c0,3.4-1.3,6.2-3.9,8.6c2.5,0.9,4.5,2.3,5.9,4.5c1.5,2.1,2.2,4.6,2.2,7.4c0,3.7-1.3,6.8-3.9,9.3c-1.6,1.6-3.3,2.7-5.3,3.3
			c-2.1,0.6-4.8,0.9-8,0.9H481.2z M488.3,42.6h2.2c2.6,0,4.6-0.6,5.8-1.8c1.2-1.2,1.8-2.9,1.8-5.2c0-2.2-0.6-3.9-1.9-5
			c-1.3-1.1-3.1-1.7-5.5-1.7h-2.5V42.6z M488.3,62.8h4.4c3.2,0,5.6-0.6,7.1-1.9c1.6-1.4,2.4-3.1,2.4-5.2c0-2-0.8-3.7-2.3-5.1
			c-1.5-1.4-4.1-2-8-2h-3.6V62.8z"/>
		<path d="M527.1,22.4v47.1H520V22.4H527.1z"/>
		<path d="M539.7,69.5V19.2L574,55.1V22.4h7.1v49.9l-34.3-35.8v33H539.7z"/>
	</g>
	<g>
		<circle class="st0" cx="409" cy="528.5" r="16.4"/>
		<g>
			<path d="M365.5,444.2c0,6.4-2.9,12.1-10.2,15.8l-1.1-1.6c5.7-2.9,8.8-7.2,9.3-12.5h-8.2v-1.7H365.5z M374.9,452.6h-3.6v11.6h-2
				v-22.4h2v9.1h3.6V452.6z"/>
			<path d="M389.9,453.5c-3.5,0.6-6.5,0.8-10.6,0.8h-1.8v-6.5h8v-3h-8.1v-1.7h10.1v6.2h-8v3.2c3.9,0,6.8-0.1,10.2-0.7L389.9,453.5z
				 M379.3,456.6h14.6v7.6h-2v-5.9h-12.5V456.6z M397.2,449.2h-3.3v6.2h-2v-13.6h2v5.7h3.3V449.2z"/>
			<path d="M406.8,447.8c0,4.1,2.7,8.2,6,9.7l-1.2,1.6c-2.5-1.2-4.7-3.9-5.8-7.1c-1,3.4-3.2,6.2-5.8,7.5l-1.2-1.7
				c3.3-1.6,6-5.9,6-10.1v-4h2V447.8z M417.2,441.8v22.5h-2v-22.5H417.2z"/>
			<path d="M433.2,454.2c-2.5-0.8-4.5-2.6-5.4-4.8c-0.9,2.5-3,4.5-5.6,5.5l-1-1.6c3.4-1.2,5.6-4.1,5.6-7.3v-0.9h-5v-1.6h12v1.6h-4.9
				v0.9c0,2.9,2.1,5.5,5.4,6.6L433.2,454.2z M438.9,460c0,2.6-2.8,4.1-7.4,4.1c-4.6,0-7.4-1.5-7.4-4.1c0-2.6,2.8-4.1,7.4-4.1
				C436,455.9,438.9,457.4,438.9,460z M436.8,460c0-1.6-2-2.5-5.3-2.5c-3.3,0-5.3,0.9-5.3,2.5c0,1.6,2,2.5,5.3,2.5
				C434.8,462.5,436.8,461.6,436.8,460z M441.9,447.5v1.7h-3.3v6.1h-2v-13.5h2v5.6H441.9z"/>
			<path d="M462.1,441.8V455H460v-3.2h-5.7c-1,1.3-2.7,2-4.6,2c-3.3,0-5.7-2.2-5.7-5.4c0-3.1,2.4-5.4,5.7-5.4c1.9,0,3.6,0.8,4.6,2
				h5.6v-3.3L462.1,441.8z M453.5,448.4c0-2.1-1.6-3.6-3.8-3.6c-2.2,0-3.8,1.5-3.8,3.6c0,2.1,1.6,3.7,3.8,3.7
				C451.9,452.1,453.5,450.6,453.5,448.4z M447.1,456.2h15v8H460v-6.3h-12.9V456.2z M460,450.1v-3.4h-4.8c0.1,0.5,0.2,1.1,0.2,1.7
				c0,0.6-0.1,1.2-0.2,1.7H460z"/>
			<path d="M379.7,485.3h-2.4v5h-2.2v-5h-8v-1.5l7.6-11.8h2.5v11.4h2.4V485.3z M375.1,483.5v-5.6c0-0.9,0.1-2.4,0.1-3.3h-0.1
				c-0.4,0.9-0.9,1.8-1.5,2.7l-4.2,6.2H375.1z"/>
			<path d="M392.5,482.5h-10.1v-11.3h2v3.9h6v-3.9h2v4.8h5.2v-6.3h2.1v16.6h-2.1v-8.6h-5.2V482.5z M390.4,476.9h-6v4h6V476.9z
				 M400.2,490v1.7h-14.9v-6.9h2v5.3H400.2z"/>
			<path d="M418.5,481.3v2.1h6.5v4.9h-13.2v2.1h13.8v1.5h-15.8v-5.1H423v-1.9h-13.2v-1.5h6.7v-2.1h-9.1v-1.6h20.2v1.6H418.5z
				 M408.4,477.2c4.1-0.3,7.6-1.6,7.9-3.9h-6.9v-1.5h7v-2.1h2.1v2.1h7v1.5h-6.9c0.3,2.2,3.7,3.6,7.9,3.9l-0.6,1.5
				c-3.7-0.3-7-1.4-8.4-3.5c-1.4,2.1-4.7,3.2-8.5,3.5L408.4,477.2z"/>
			<path d="M450,482.5h-9.1v9.7h-2.1v-9.7h-9v-1.7h14.9c0.7-3.2,0.7-5.6,0.7-7.7v-0.3h-13v-1.6h15v1.9c0,2.1,0,4.5-0.6,7.7h3.3
				V482.5z"/>
		</g>
		<g>
			<path class="st0" d="M384.3,384.6H373l-2.9,6.4h-4.3l13.1-28l12.6,28h-4.4L384.3,384.6z M382.7,380.8l-3.9-9l-4.1,9H382.7z"/>
			<path class="st0" d="M408.9,368.5l-3.2,1.9c-0.6-1-1.2-1.7-1.7-2.1c-0.6-0.4-1.3-0.5-2.2-0.5c-1.1,0-2,0.3-2.8,0.9
				c-0.7,0.6-1.1,1.4-1.1,2.3c0,1.3,1,2.3,2.9,3.1l2.6,1.1c2.1,0.9,3.7,1.9,4.7,3.2c1,1.2,1.5,2.8,1.5,4.6c0,2.4-0.8,4.4-2.4,6
				c-1.6,1.6-3.7,2.4-6.1,2.4c-2.3,0-4.2-0.7-5.7-2c-1.5-1.4-2.4-3.3-2.8-5.7l4-0.9c0.2,1.5,0.5,2.6,1,3.2c0.8,1.1,2,1.7,3.6,1.7
				c1.2,0,2.3-0.4,3.1-1.2c0.8-0.8,1.2-1.9,1.2-3.2c0-0.5-0.1-1-0.2-1.4c-0.1-0.4-0.4-0.8-0.7-1.2c-0.3-0.4-0.7-0.7-1.2-1
				c-0.5-0.3-1-0.6-1.7-0.9l-2.5-1.1c-3.6-1.5-5.4-3.8-5.4-6.7c0-2,0.8-3.6,2.3-5c1.5-1.3,3.4-2,5.7-2
				C404.8,364.1,407.2,365.6,408.9,368.5z"/>
			<path class="st0" d="M422.2,368.3V391h-4v-22.6h-6.1v-3.7h16.1v3.7H422.2z"/>
			<path class="st0" d="M439.9,379.6l-8.6-15h4.6l6,10.5l6.1-10.5h4.6l-8.6,15V391h-4V379.6z"/>
			<path class="st0" d="M376.2,401.1v4.7c-2.3-1.9-4.7-2.9-7.1-2.9c-2.7,0-5,1-6.9,2.9c-1.9,1.9-2.8,4.3-2.8,7.1
				c0,2.8,0.9,5.1,2.8,7c1.9,1.9,4.2,2.9,6.9,2.9c1.4,0,2.6-0.2,3.6-0.7c0.5-0.2,1.1-0.5,1.7-0.9c0.6-0.4,1.2-0.9,1.9-1.4v4.8
				c-2.3,1.3-4.7,1.9-7.2,1.9c-3.8,0-7-1.3-9.7-3.9c-2.7-2.7-4-5.9-4-9.6c0-3.4,1.1-6.4,3.3-9c2.7-3.2,6.3-4.8,10.6-4.8
				C371.7,399.2,374,399.8,376.2,401.1z"/>
			<path class="st0" d="M397.4,419.7h-11.3l-2.9,6.4h-4.3l13.1-28l12.6,28h-4.4L397.4,419.7z M395.7,415.9l-3.9-9l-4.1,9H395.7z"/>
			<path class="st0" d="M407.8,426.1v-26.4h4c1.8,0,3.2,0.1,4.2,0.4c1.1,0.3,2,0.7,2.7,1.4c0.7,0.7,1.3,1.5,1.8,2.5
				c0.4,1,0.7,2,0.7,3.1c0,1.9-0.7,3.5-2.2,4.8c1.4,0.5,2.5,1.3,3.3,2.5c0.8,1.2,1.2,2.6,1.2,4.1c0,2.1-0.7,3.8-2.2,5.2
				c-0.9,0.9-1.9,1.5-3,1.8c-1.2,0.3-2.7,0.5-4.5,0.5H407.8z M411.8,411h1.2c1.5,0,2.6-0.3,3.3-1c0.7-0.7,1-1.6,1-2.9
				c0-1.2-0.4-2.2-1.1-2.8c-0.7-0.6-1.7-1-3.1-1h-1.4V411z M411.8,422.3h2.5c1.8,0,3.1-0.4,4-1.1c0.9-0.8,1.3-1.7,1.3-2.9
				c0-1.1-0.4-2.1-1.3-2.9c-0.8-0.8-2.3-1.1-4.5-1.1h-2V422.3z"/>
			<path class="st0" d="M432.5,399.7v26.4h-4v-26.4H432.5z"/>
			<path class="st0" d="M438.1,426.1v-28.2l19.2,20.1v-18.3h4v28l-19.2-20.1v18.5H438.1z"/>
		</g>
		<g>
			<path d="M60.5,554.7h-9.2v8.1h-2v-8.1h-9V553h20.2L60.5,554.7z M58.7,550.5c-3.5-0.6-6.8-2.5-8.3-5.2c-1.4,2.7-4.8,4.6-8.3,5.2
				l-0.8-1.6c4.1-0.6,8-3.3,8-6.5v-1.2h2.2v1.2c0,3.1,4,5.9,8.1,6.5L58.7,550.5z"/>
			<path d="M70.4,546.3c0,4.1,2.5,8.1,5.8,9.7l-1.2,1.6c-2.5-1.3-4.6-3.9-5.6-7.1c-1,3.3-3,6.1-5.6,7.5l-1.2-1.6
				c3.2-1.6,5.8-5.9,5.8-10.1v-4h2V546.3z M81.1,540.3v22.4h-2v-13.2h-5.2v-1.7H79v-7.6H81.1z"/>
			<path d="M103.4,540.3v13.2h-2.1v-3.2h-5.7c-1.1,1.3-2.7,2-4.6,2c-3.3,0-5.7-2.2-5.7-5.4c0-3.1,2.4-5.4,5.7-5.4
				c1.9,0,3.6,0.8,4.6,2h5.6v-3.3L103.4,540.3z M94.9,547c0-2.1-1.6-3.6-3.8-3.6c-2.2,0-3.8,1.5-3.8,3.6c0,2.1,1.6,3.7,3.8,3.7
				C93.3,550.6,94.9,549.1,94.9,547z M88.4,554.8h15v8h-2.1v-6.3H88.4V554.8z M101.4,548.7v-3.4h-4.8c0.1,0.5,0.2,1.1,0.2,1.7
				c0,0.6-0.1,1.2-0.2,1.7H101.4z"/>
			<path d="M123.6,552.1h-10.4v-10.3h2v3.4h6.3v-3.4h2V552.1z M130,558.6c0,2.6-2.8,4.2-7.4,4.2c-4.6,0-7.4-1.5-7.4-4.2
				c0-2.6,2.8-4.2,7.4-4.2C127.1,554.4,130,555.9,130,558.6z M121.6,546.7h-6.3v3.7h6.3V546.7z M127.9,558.6c0-1.6-2-2.5-5.3-2.5
				c-3.3,0-5.3,0.9-5.3,2.5s2,2.5,5.3,2.5C125.9,561.1,127.9,560.2,127.9,558.6z M133,546v1.7h-3.3v6.1h-2v-13.5h2v5.6H133z"/>
			<path d="M145.9,552.8h-10.2v-10.4h10.2v2h5.1v-3.9h2.1v16.3h-2.1v-5.9h-5.1V552.8z M143.9,543.9h-6.2v7.2h6.2V543.9z
				 M153.7,560.6v1.7h-14.9v-7h2v5.3H153.7z M145.9,546v3.1h5.1V546H145.9z"/>
		</g>
		<g>
			<path d="M618.6,597.7c-1.4,3.6-4.8,6.2-9.7,7.6l-0.8-1.6c5.3-1.6,8.7-4.6,9-8.4h-7.9v-1.6h10.1c0,0.8-0.1,1.6-0.2,2.4h5.1v-4.1
				h2.1v13.4h-2.1v-2.9h-5.9v-1.7h5.9v-3H618.6z M626.4,609.9c0,2.7-2.9,4.3-7.4,4.3s-7.4-1.6-7.4-4.3c0-2.7,2.9-4.3,7.4-4.3
				S626.4,607.2,626.4,609.9z M624.3,609.9c0-1.7-2.1-2.7-5.4-2.7s-5.4,1-5.4,2.7c0,1.7,2.1,2.7,5.4,2.7S624.3,611.6,624.3,609.9z"
				/>
			<path d="M642.5,603.1c-2.6-0.7-4.6-2.1-5.6-4.1c-1,2.2-3.1,3.8-5.8,4.5l-0.9-1.6c3.3-0.9,5.7-3.1,5.7-5.8v-0.4h-5v-1.6h5v-2.4h2
				v2.4h4.9v1.6h-4.9v0.4c0,2.4,2.3,4.6,5.5,5.4L642.5,603.1z M635.4,612.4h13v1.6h-15v-5.5h12.1v-2.1h-12.2v-1.6h14.2v5.2h-12.2
				V612.4z M650.9,596.9v1.7h-3.3v5.1h-2v-11.8h2v5H650.9z"/>
			<path d="M663.8,603.8h-10.1v-10.5h2v3.6h6v-3.6h2v2.3h5.2v-3.6h2.1v13.6h-2.1v-3.7h-5.2V603.8z M661.7,598.5h-6v3.7h6V598.5z
				 M671.1,610.1c0,2.6-2.8,4.2-7.5,4.2c-4.6,0-7.4-1.5-7.4-4.2s2.8-4.2,7.4-4.2C668.2,605.9,671.1,607.4,671.1,610.1z M669,610.1
				c0-1.6-2.1-2.6-5.4-2.6c-3.3,0-5.4,1-5.4,2.6c0,1.6,2,2.6,5.4,2.6C667,612.7,669,611.7,669,610.1z M663.8,597.2v2.9h5.2v-2.9
				H663.8z"/>
			<path d="M681.3,603.8c-2.2,0.1-4.4,0.1-6.2,0.1l-0.3-1.7c4.1,0,9.7-0.1,14.4-0.6l0.2,1.5c-2,0.3-4,0.5-6.1,0.6v4.4h-2V603.8z
				 M676.6,596.7c0-2.3,2.2-3.9,5.5-3.9s5.5,1.5,5.5,3.9c0,2.4-2.2,3.9-5.5,3.9S676.6,599.1,676.6,596.7z M693.8,612.1v1.7H678v-6.5
				h2v4.8H693.8z M678.5,596.7c0,1.4,1.5,2.4,3.6,2.4s3.6-0.9,3.6-2.4c0-1.4-1.5-2.4-3.6-2.4S678.5,595.2,678.5,596.7z M691.2,605.1
				v-13.2h2.1v17.1h-2.1v-2.3h-4.5v-1.5H691.2z"/>
			<path d="M715.8,591.9v13.2h-2.1v-3.2H708c-1,1.3-2.7,2-4.6,2c-3.3,0-5.7-2.2-5.7-5.4c0-3.1,2.4-5.4,5.7-5.4c1.9,0,3.6,0.8,4.6,2
				h5.6v-3.3L715.8,591.9z M707.2,598.5c0-2.1-1.6-3.6-3.8-3.6c-2.2,0-3.8,1.5-3.8,3.6c0,2.1,1.6,3.7,3.8,3.7
				C705.6,602.2,707.2,600.6,707.2,598.5z M700.8,606.3h15v8h-2.1V608h-12.9V606.3z M713.7,600.2v-3.4h-4.8c0.2,0.5,0.2,1.1,0.2,1.7
				c0,0.6-0.1,1.2-0.2,1.7H713.7z"/>
		</g>
		<g>
			<path d="M219.2,594.3c0,6.4-2.9,12.1-10.2,15.8l-1.1-1.6c5.7-2.9,8.8-7.2,9.3-12.5h-8.2v-1.7H219.2z M228.6,602.7H225v11.6h-2
				v-22.4h2v9.1h3.6V602.7z"/>
			<path d="M243.5,603.6c-3.5,0.6-6.5,0.8-10.6,0.8h-1.8v-6.5h8v-3H231v-1.7h10.1v6.2h-8v3.2c3.9,0,6.8-0.1,10.2-0.7L243.5,603.6z
				 M232.9,606.7h14.6v7.6h-2v-5.9h-12.5V606.7z M250.8,599.3h-3.3v6.2h-2v-13.6h2v5.7h3.3V599.3z"/>
			<path d="M259.7,597.8c0,4.1,2.7,8.2,6,9.7l-1.2,1.6c-2.5-1.2-4.7-3.9-5.8-7.1c-1,3.4-3.2,6.2-5.8,7.5l-1.2-1.7
				c3.3-1.6,6-5.9,6-10.1v-4h2V597.8z M270.1,591.9v22.5h-2v-22.5H270.1z"/>
			<path d="M285.6,604.3c-2.5-0.8-4.5-2.6-5.4-4.8c-0.9,2.5-3,4.5-5.6,5.5l-1-1.6c3.4-1.2,5.6-4.1,5.6-7.3v-0.9h-5v-1.6h12v1.6h-4.9
				v0.9c0,2.9,2.1,5.5,5.4,6.6L285.6,604.3z M291.3,610.1c0,2.6-2.8,4.1-7.4,4.1c-4.6,0-7.4-1.5-7.4-4.1c0-2.6,2.8-4.1,7.4-4.1
				C288.4,606,291.3,607.5,291.3,610.1z M289.2,610.1c0-1.6-2-2.5-5.3-2.5c-3.3,0-5.3,0.9-5.3,2.5c0,1.6,2,2.5,5.3,2.5
				C287.2,612.6,289.2,611.7,289.2,610.1z M294.3,597.5v1.7H291v6.1h-2v-13.5h2v5.6H294.3z"/>
			<path d="M314.5,591.9v13.2h-2.1v-3.2h-5.7c-1.1,1.3-2.7,2-4.6,2c-3.3,0-5.7-2.2-5.7-5.4c0-3.1,2.4-5.4,5.7-5.4
				c1.9,0,3.6,0.8,4.6,2h5.6v-3.3L314.5,591.9z M305.9,598.5c0-2.1-1.6-3.6-3.8-3.6c-2.2,0-3.8,1.5-3.8,3.6c0,2.1,1.6,3.7,3.8,3.7
				C304.3,602.2,305.9,600.6,305.9,598.5z M299.5,606.3h15v8h-2.1V608h-12.9V606.3z M312.4,600.2v-3.4h-4.8c0.1,0.5,0.2,1.1,0.2,1.7
				c0,0.6-0.1,1.2-0.2,1.7H312.4z"/>
		</g>
		<polygon points="721.7,575.8 595.1,575.8 595.1,239.9 592.1,239.9 592.1,575.8 332.5,575.8 332.5,239.9 329.5,239.9 329.5,575.8 
			40.2,575.8 40.2,578.8 329.4,578.8 311.4,921.4 314.3,921.5 332.4,578.8 592.1,578.8 592.1,921.4 595.1,921.4 595.1,578.8 
			721.7,578.8 		"/>
	</g>
</g>
</svg>
