<?xml version="1.0" encoding="utf-8"?>
<!-- Generator: Adobe Illustrator 25.0.1, SVG Export Plug-In . SVG Version: 6.00 Build 0)  -->
<svg version="1.1" id="Layer_1" xmlns="http://www.w3.org/2000/svg" xmlns:xlink="http://www.w3.org/1999/xlink" x="0px" y="0px"
	 viewBox="0 0 1006.9 29.6" style="enable-background:new 0 0 1006.9 29.6;" xml:space="preserve">
<style type="text/css">
	.st0{fill:#FFFFFF;}
</style>
<g>
	<path class="st0" d="M3.8,8.8l-2.9,1.9L0,9l3-1.5L0,5.9l0.9-1.7l2.9,1.9L3.7,2.5h1.9L5.6,6.1l2.9-1.9l0.9,1.7l-3,1.6l3,1.5
		l-0.9,1.7L5.6,8.8l0.1,3.6H3.7L3.8,8.8z"/>
	<path class="st0" d="M33.1,15.4c-2.8-1.3-5.7-3.8-6.8-6.8c-0.9,3.1-3.8,6-7.3,7.8l-1.4-2c4.2-1.9,7.3-5.6,7.3-10.2V1.4h2.6v2.7
		c0,4.6,3.8,8.2,7.1,9.3L33.1,15.4z M31.1,29c-6.1,0-9.7-2.1-9.7-5.6c0-3.5,3.6-5.6,9.7-5.6c6.1,0,9.8,2.1,9.8,5.6
		C40.9,26.9,37.3,29,31.1,29z M24,23.5c0,2.2,2.7,3.5,7.1,3.5c4.4,0,7.2-1.3,7.2-3.5c0-2.2-2.8-3.5-7.2-3.5C26.8,20,24,21.3,24,23.5
		z M40.5,10v7.9H38V0h2.5v7.9H45V10H40.5z"/>
	<path class="st0" d="M61.2,3.1c-0.2,9.4-5.9,16.7-13.4,20.2l-1.5-2c7.3-3.2,11.7-9.6,12.2-16.1H47.4V3.1H61.2z M67.2,29.1V0h2.5
		v29.1H67.2z"/>
	<path class="st0" d="M81.1,14.4v-0.7c0-8,4.5-11.1,10.2-11.1c2.4,0,4.1,0.5,5.5,1.2v2.2c-1.8-0.7-3.4-1.2-5.6-1.2
		c-4.2,0-7.2,2.5-7.2,8.4v1.1c0,5.7,2.1,9,7.2,9c2.8,0,4.4-0.8,5.8-1.5v2.2c-1.5,0.9-3.5,1.5-6.2,1.5C84.8,25.7,81.1,22,81.1,14.4z"
		/>
	<path class="st0" d="M99.1,14.6V14c0-8.4,4.9-11.4,10.5-11.4c2.8,0,4.5,0.6,5.8,1.3v2.3c-1.3-0.6-3-1.4-6-1.4
		c-5.6,0-7.5,4.1-7.5,8.8v0.9c0,5.2,1.6,8.9,7.6,8.9c1.6,0,3.1-0.3,4.2-0.7v-6.1h-4.8v-2.2h7.4v9.9c-1.7,0.6-4,1.2-6.8,1.2
		C103.2,25.7,99.1,22.3,99.1,14.6z"/>
	<path class="st0" d="M128.1,14V2.1h14V14H128.1z M151.1,29.6c-4.1-0.5-8.1-2.4-9.7-5c-1.5,2.6-5.9,4.6-9.9,5l-1-2
		c4.2-0.3,8.8-2.4,9.5-5.1h-8.4v-2.1h19.8v2.1h-8.5c0.8,2.6,5.8,4.7,9.5,5.1L151.1,29.6z M139.5,4.2h-9v7.8h9V4.2z M136.8,18v-2.2
		h9.2V18H136.8z M148,15.8V0h2.5v15.8H148z"/>
	<path class="st0" d="M170.8,2.2c4.8,0,7.5,4.1,7.5,10.3c0,6.2-2.7,10.3-7.5,10.3c-4.8,0-7.5-4.1-7.5-10.3
		C163.3,6.3,166.1,2.2,170.8,2.2z M170.8,4.4c-3.1,0-5.1,3.3-5.1,8.1c0,4.8,2,8.1,5.1,8.1c3.1,0,5.1-3.3,5.1-8.1
		C175.9,7.7,173.9,4.4,170.8,4.4z M183.7,29.1V0h2.5v29.1H183.7z"/>
	<path class="st0" d="M191.8,21.6V3h13.7v18.6H191.8z M203,5.1h-8.7v14.4h8.7V5.1z M211.3,29.1V0h2.5v29.1H211.3z"/>
	<path class="st0" d="M234.4,22.1c-2.7-1.8-6.4-5.4-7.4-8.8c-1,3.6-4.2,7.3-7.5,9.5l-1.6-1.9c4.2-2.5,7.8-7.4,7.8-12.9V5h-6.8V2.9
		h16.2V5h-6.8v3c0,5.4,3.7,10.1,7.7,12.3L234.4,22.1z M241.9,0v29.1h-2.5V0H241.9z"/>
	<path class="st0" d="M245.8,17.1V15h26.3v2.1H245.8z M249.3,28.4v-8.6h2.5v6.5h17.5v2.1H249.3z M249.4,11.4V1.2h2.5v8.1h17.3v2.1
		H249.4z"/>
	<path class="st0" d="M280.6,25.3v-2.1h11.8v-7.4h2.5v7.4h11.9v2.1H280.6z M304.4,16.4c-5.1-1.4-9.5-5-10.7-8.3
		c-1.1,3.3-5.6,6.9-10.7,8.3l-1.3-2c5.1-1,10.7-5.1,10.7-10.1V2.2h2.6v2.1c0,5,6,9.2,10.8,10.1L304.4,16.4z"/>
	<path class="st0" d="M310,21.8V2.5h2.5v7.4h8.7V2.5h2.5v19.4H310z M321.2,12h-8.7v7.7h8.7V12z M329.8,29.1V0h2.5v29.1H329.8z"/>
	<path class="st0" d="M352,22.3c-2.8-1.8-6.3-5.4-7.3-8.9c-1,3.5-3.8,7.1-7.3,9.6l-1.7-1.9c4.3-2.5,7.7-7.6,7.7-12.9v-3h-6.7V3.1
		h16.1v2.1h-6.7v2.9c0,5.4,3.6,10,7.6,12.3L352,22.3z M358.6,13.9v15.2H356V0h2.5v11.8h4.7v2.1H358.6z"/>
	<path class="st0" d="M383.7,21.7c-2.5,0.3-6.7,0.6-10.3,0.8c-3.4,0.2-6.6,0.2-8.8,0.3l-0.4-2.2c2.5,0,5.9,0,9.4-0.2
		c4-0.2,7.8-0.4,9.9-0.7L383.7,21.7z M373.3,15.9c-4.3,0-7.6-2.8-7.6-6.8c0-4.1,3.3-6.9,7.6-6.9c4.3,0,7.6,2.7,7.6,6.9
		C380.8,13.3,377.5,15.9,373.3,15.9z M373.3,4.4c-2.8,0-5.1,2-5.1,4.8c0,2.7,2.3,4.6,5.1,4.6c2.7,0,5.1-1.9,5.1-4.6
		C378.4,6.3,376.1,4.4,373.3,4.4z M387.9,0v29.1h-2.5V0H387.9z"/>
	<path class="st0" d="M407.3,2.2c4.8,0,7.5,4.1,7.5,10.3c0,6.2-2.7,10.3-7.5,10.3c-4.8,0-7.5-4.1-7.5-10.3
		C399.8,6.3,402.5,2.2,407.3,2.2z M407.3,4.4c-3.1,0-5.1,3.3-5.1,8.1c0,4.8,2,8.1,5.1,8.1c3.1,0,5.1-3.3,5.1-8.1
		C412.4,7.7,410.4,4.4,407.3,4.4z M420.2,29.1V0h2.5v29.1H420.2z"/>
	<path class="st0" d="M426.6,9.2V7.1h14.5v2.1H426.6z M434.2,22.4c-3.7,0-6.3-2.5-6.3-5.8c0-3.5,2.6-5.8,6.3-5.8
		c3.8,0,6.3,2.3,6.3,5.8S437.9,22.4,434.2,22.4z M430,4.4V2.2h7.9v2.2H430z M434.2,13c-2.3,0-3.9,1.5-3.9,3.7c0,2.2,1.6,3.7,3.9,3.7
		c2.3,0,3.9-1.5,3.9-3.7C438.1,14.4,436.5,13,434.2,13z M448.7,29.1V14h-3.5v13.6h-2.5V0.7h2.5v11.2h3.5V0h2.5v29.1H448.7z"/>
	<path class="st0" d="M454.5,15.5v-2h26.3v2H454.5z M457.5,28.5v-6.5h17.6v-2.4h-17.6v-1.9h20.1v6.1H460v2.7h18.5v2H457.5z
		 M457.8,11.2v-6h17.1V2.9h-17.2V1h19.7V7h-17.1v2.3H478v1.9H457.8z"/>
	<path class="st0" d="M503.6,10.1v3.7h11.9v2.1h-26.3v-2.1h11.8v-3.7h-8.4V0.8h19.4V3h-16.8v5h17v2.1H503.6z M492.6,28.7V17.8h2.5
		v3.4h14.3v-3.4h2.5v11H492.6z M509.5,23.2h-14.3v3.4h14.3V23.2z"/>
	<path class="st0" d="M532.3,3.1c-0.2,9.4-5.9,16.7-13.4,20.2l-1.5-2c7.3-3.2,11.7-9.6,12.2-16.1h-11.1V3.1H532.3z M538.3,29.1V0
		h2.5v29.1H538.3z"/>
	<path class="st0" d="M559.9,28.2v-10c-2.7,0.1-5.3,0.2-7.9,0.2l-0.4-2.3c3.5,0,6.6,0,9.8-0.1c3.6-0.1,7.3-0.3,10.1-0.7l0.1,2
		c-2.2,0.3-6,0.5-9.3,0.7v10.1H559.9z M561.2,13.8c-4.5,0-7.6-2.5-7.6-6.2c0-3.7,3.1-6.2,7.6-6.2s7.6,2.5,7.6,6.2
		C568.9,11.3,565.7,13.8,561.2,13.8z M561.2,3.6c-2.9,0-5.2,1.5-5.2,4.1c0,2.6,2.3,4,5.2,4c2.9,0,5.2-1.5,5.2-4
		C566.4,5,564.1,3.6,561.2,3.6z M573.3,29.1V0h2.5v29.1H573.3z"/>
	<path class="st0" d="M579.5,7.5V5.4h17v2.1H579.5z M588.1,19.3c-3.9,0-6.8-2-6.8-5.1c0-3.1,2.9-5.1,6.8-5.1c3.9,0,6.8,2,6.8,5.1
		C594.9,17.3,592,19.3,588.1,19.3z M588.1,11.1c-2.3,0-4.4,1.2-4.4,3.1c0,1.9,2.1,3.1,4.4,3.1c2.3,0,4.4-1.2,4.4-3.1
		C592.5,12.3,590.4,11.1,588.1,11.1z M583.7,3.3V1h8.4v2.2H583.7z M583.8,28.1v-7.5h2.5V26h16.8v2.1H583.8z M602,12v9.5h-2.5V0h2.5
		v9.8h4.4V12H602z"/>
	<path class="st0" d="M629.2,2.5c-0.4,8-5.7,13-13.2,15.6l-1.3-2.1c6.4-1.7,11-6.1,11.7-11.3h-10.4V2.5H629.2z M639,28.9
		c-4.2-0.7-8.6-3.7-10.1-6.8c-1.1,3-5.8,6.2-10.2,7l-1.2-2c4.7-0.6,10.1-4.2,10.1-8.4v-1.6h2.7v1.6c0,4.2,5.2,7.7,9.8,8.3L639,28.9z
		 M629.3,10.1V7.9h6.4V0h2.5v19.5h-2.5v-9.4H629.3z"/>
	<path class="st0" d="M642.2,25.1v-2.1h26.2v2.1H642.2z M655.3,17.2c-6.3,0-10.6-2.9-10.6-7.3c0-4.4,4.2-7.3,10.6-7.3
		c6.4,0,10.6,2.9,10.6,7.3C665.9,14.3,661.7,17.2,655.3,17.2z M655.3,4.7c-4.8,0-8,2.1-8,5.3c0,3.1,3.2,5.2,8,5.2
		c4.8,0,8.1-2.1,8.1-5.2C663.4,6.8,660.2,4.7,655.3,4.7z"/>
	<path class="st0" d="M670.1,25.3v-2.1h11.8v-4.9h-8.6V9.2h17.2V4.5h-17.2V2.4h19.8v8.9h-17.2v4.9h18v2.1h-9.5v4.9h11.9v2.1H670.1z"
		/>
	<path class="st0" d="M720.8,14.3c-2.9-1.1-5.8-3.5-7.2-6.6c-0.9,3-3.9,5.8-7.4,7.5l-1.4-1.9c3.8-1.5,7.5-5,7.5-9.6V1h2.6v2.5
		c0,4.7,3.8,7.5,7.4,8.8L720.8,14.3z M709.7,28.7v-7.2h16.3v-3h-16.4v-2.1h18.9v7h-16.3v3.3h17.4v2.1H709.7z M726.1,14.8V0h2.5v14.8
		H726.1z"/>
	<path class="st0" d="M745.9,22.2c-2.1-1.4-5.1-4.8-6-7.9c-0.6,3.2-3.2,6.7-6,8.7l-1.7-1.8c3.4-2.2,6.5-6.8,6.5-12.4V5.5h-5.8V3.4
		h13.8v2.1h-5.6v3.2c0,5.8,2.7,9.3,6.3,11.7L745.9,22.2z M748.9,27.6V12.8h-4.7v-2.1h4.7v-10h2.5v26.9H748.9z M754.7,29.1V0h2.5
		v29.1H754.7z"/>
	<path class="st0" d="M777.1,8.9c0,3.8-2.8,6.4-6.6,6.9v4.7c3.2-0.2,6.2-0.4,8.1-0.7l0.2,2c-2.3,0.3-6.3,0.6-9.8,0.8
		c-3.2,0.2-6.1,0.3-8.5,0.3l-0.4-2.2c2.2,0,5,0,7.9-0.2v-4.8c-3.9-0.4-6.7-3-6.7-6.8c0-4.2,3.4-7,7.9-7
		C773.7,1.9,777.1,4.7,777.1,8.9z M763.8,8.9c0,2.9,2.3,4.8,5.4,4.8c3.2,0,5.4-1.8,5.4-4.7c0-3-2.2-4.9-5.4-4.9
		C766,4.1,763.8,5.9,763.8,8.9z M782.9,14.3v14.8h-2.5V0h2.5v12.2h4.7v2.1H782.9z"/>
	<path class="st0" d="M800.6,19.8c3.8,0,9.5-0.3,12.3-0.9l0.3,2.1c-3.1,0.6-8.9,1-13.9,1h-2.8V3h13.8v2.1h-11.2v14.6H800.6z
		 M817.7,11.5h4.7v2.1h-4.7v15.4h-2.5V0h2.5V11.5z"/>
	<path class="st0" d="M823.1,15.5v-2h26.2v2H823.1z M826.1,28.5v-6.5h17.6v-2.4h-17.6v-1.9h20.1v6.1h-17.6v2.7h18.5v2H826.1z
		 M826.4,11.2v-6h17.1V2.9h-17.2V1h19.7V7h-17.1v2.3h17.7v1.9H826.4z"/>
	<path class="st0" d="M869.7,29.1V18.5h-11.8v-2.1h26.3v2.1h-11.9v10.6H869.7z M881.8,13.3c-4.3-0.9-9.1-3.6-10.8-7
		c-1.4,3.4-6.4,6.2-10.8,7.1l-1.2-2.2c5.6-0.7,10.7-4.4,10.7-8.4V1h2.7v1.8c0,4,5.6,7.7,10.7,8.3L881.8,13.3z"/>
	<path class="st0" d="M908.4,8.6c0,4.3-3.4,6.9-7.5,6.9c-4.1,0-7.5-2.7-7.5-6.9c0-4.2,3.4-7,7.5-7C905,1.6,908.4,4.4,908.4,8.6z
		 M905.1,26.8c-1.4-0.8-3-2.3-3.7-3.8c-0.7,2.2-3.2,5-5.8,6.2l-1.5-1.8c3-1.3,5.9-4.5,5.9-8v-1.4h2.5v1.2c0,3.1,2.1,5.1,4.3,6
		L905.1,26.8z M895.8,8.6c0,2.9,2.2,4.9,5.1,4.9c3,0,5.1-2,5.1-4.8c0-2.9-2-4.9-5.1-4.9C898,3.7,895.8,5.8,895.8,8.6z M917.6,29.1
		c-2-1-4.6-3.5-5.3-5.6c-0.7,2.2-3.2,4.8-5.5,6l-1.6-1.7c3.1-1.5,5.8-4.7,5.8-8.2v-1.8h2.5v1.7c0,3.6,2.9,6.8,5.7,7.8L917.6,29.1
		L917.6,29.1z M913.8,16.9V0h2.5v16.9H913.8z"/>
	<path class="st0" d="M920.4,15.6v-2.1h26.2v2.1H920.4z M944.1,11.2c-4.4-0.8-9.1-3.6-10.5-6.6c-1.3,3-6.1,5.8-10.5,6.6L921.9,9
		c4.6-0.5,10.4-3.6,10.4-7.7V0.3h2.6v0.9c0,4.1,5.9,7.2,10.4,7.7L944.1,11.2z M923.8,28.7v-11h2.5V21h14.5v-3.4h2.5v11H923.8z
		 M940.8,23.1h-14.5v3.5h14.5V23.1z"/>
	<path class="st0" d="M966.6,20.6c-3.4,0.8-10.9,1.3-15.4,1.3h-1.3V3h2.5v16.7c3.8,0,10.4-0.5,13.9-1.3L966.6,20.6z M971.8,29.1
		h-2.5V0h2.5V29.1z"/>
	<path class="st0" d="M981.4,19.8c3.8,0,9.5-0.3,12.3-0.9l0.3,2.1c-3.1,0.6-8.9,1-13.9,1h-2.8V3H991v2.1h-11.2v14.6H981.4z
		 M998.5,11.5h4.7v2.1h-4.7v15.4H996V0h2.5V11.5z"/>
	<path class="st0" d="M1004,23.2h2.9v3h-2.9V23.2z"/>
</g>
</svg>
