<?xml version="1.0" encoding="utf-8"?>
<!-- Generator: Adobe Illustrator 25.0.1, SVG Export Plug-In . SVG Version: 6.00 Build 0)  -->
<svg version="1.1" id="Layer_1" xmlns="http://www.w3.org/2000/svg" xmlns:xlink="http://www.w3.org/1999/xlink" x="0px" y="0px"
	 viewBox="0 0 466.1 41.6" style="enable-background:new 0 0 466.1 41.6;" xml:space="preserve">
<g>
	<path d="M1.3,4.5l0.7-1.2L0.8,2.7L1,2.1l1.3,0.3L2.5,1h0.6l0.1,1.4l1.3-0.3l0.2,0.6L3.4,3.2l0.7,1.2L3.7,4.8L2.8,3.7L1.8,4.8
		L1.3,4.5z"/>
	<path d="M14.6,6c-1.2-0.4-2.1-1.3-2.6-2.4c-0.4,1.2-1.4,2.2-2.7,2.7L8.8,5.6c1.6-0.5,2.7-1.9,2.7-3.5V1h0.9v1
		c0,1.4,1.2,2.7,2.7,3.2L14.6,6z M18.1,10.6v0.7h-7.3V8.7h6V7.5h-6V6.8h6.9v2.5h-6v1.2H18.1z M16.8,3.4h-2.4V2.7h2.4v-2h0.9v5.6
		h-0.9V3.4z"/>
	<path d="M26,1h0.8v9.9H26V7.1h-2V6.4h2v-2h-1.9c-0.5,1.8-1.7,3.5-3.7,4.7l-0.5-0.6c2.3-1.4,3.5-3.4,3.7-5.7h-3.2V2.1h4.1
		c0,0.6,0,1.1-0.1,1.6H26V1z M29,0.7v10.7h-0.8V0.7H29z"/>
	<path d="M35.5,2.1c0,2.7-1,5.3-4,7l-0.5-0.6c2.5-1.4,3.5-3.4,3.7-5.6h-3.3V2.1H35.5z M40,0.7v10.7h-0.8V5.8h-1.5v5.1h-0.8V1h0.8
		v4.1h1.5V0.7H40z"/>
	<path d="M51.7,9.3V10h-9.8V9.3h2.4V6.4c-0.9-0.5-1.5-1.2-1.5-2.2c0-1.7,1.6-2.7,3.9-2.7c2.3,0,3.9,1.1,3.9,2.7c0,1-0.5,1.7-1.4,2.2
		v2.9H51.7z M46.8,6.2c1.8,0,3-0.8,3-2c0-1.2-1.3-2-3-2c-1.8,0-3,0.8-3,2C43.8,5.4,45,6.2,46.8,6.2z M45.2,9.3h3.1V6.7
		c-0.5,0.1-1,0.2-1.6,0.2c-0.6,0-1.1-0.1-1.5-0.2V9.3z"/>
	<path d="M53,12.2c0.7-0.3,1.2-0.9,1.2-1.6c0,0-0.1,0-0.1,0c-0.4,0-0.7-0.3-0.7-0.7c0-0.4,0.4-0.7,0.8-0.7c0.5,0,0.9,0.5,0.9,1.2
		c0,1.1-0.7,2-1.7,2.4L53,12.2z"/>
	<path d="M68.6,7.6h-4.4v3.8h-0.9V7.6h-4.4V6.8h9.7V7.6z M59.5,5.2c1.8-0.3,3.8-1.5,3.8-3V2.1h-3.4V1.4h7.8v0.7h-3.4v0.1
		c0,1.5,2,2.7,3.8,3l-0.3,0.7c-1.6-0.3-3.3-1.2-3.9-2.5c-0.6,1.3-2.3,2.2-3.9,2.5L59.5,5.2z"/>
	<path d="M75.3,6.8h-4.8V1.4h0.9v1.9h3.1V1.4h0.9v1.3h2.6v-2h0.9v7.9h-0.9V5.8h-2.6V6.8z M74.4,4.1h-3.1v2h3.1V4.1z M79,10.5v0.7
		h-7.1V7.9h0.9v2.6H79z M75.3,3.4V5h2.6V3.4H75.3z"/>
	<path d="M93.4,9.2v0.7h-9.7V9.2h2.4V5.6H87v3.6h1.8V5.6h0.9v3.6H93.4z M91.3,2.5h-6.6V1.8h7.5V3c0,1.4,0,2.8-0.4,4.7l-0.9-0.1
		c0.4-1.9,0.4-3.3,0.4-4.6V2.5z"/>
	<path d="M104.4,6.4v0.7h-9.7V6.4h4.4V5.3H96V1h7.2v0.7h-6.3v1.1h6v0.7h-6v1.1h6.4v0.7H100v1.1H104.4z M103.2,9.7
		c0,1.1-1.3,1.7-3.7,1.7c-2.3,0-3.7-0.6-3.7-1.7c0-1.1,1.3-1.7,3.7-1.7C101.9,8,103.2,8.6,103.2,9.7z M102.3,9.7c0-0.7-1-1-2.8-1
		c-1.8,0-2.8,0.4-2.8,1c0,0.7,1,1,2.8,1C101.3,10.7,102.3,10.4,102.3,9.7z"/>
	<path d="M109.5,3.7c0,2,1.4,3.9,2.9,4.6L111.9,9c-1.2-0.6-2.3-1.9-2.8-3.5c-0.5,1.6-1.6,3-2.8,3.7l-0.5-0.7
		c1.5-0.7,2.9-2.8,2.9-4.8v-2h0.9V3.7z M114.5,0.7v10.7h-0.9V0.7H114.5z"/>
	<path d="M122.6,6c-1.2-0.4-2.1-1.3-2.6-2.4c-0.4,1.2-1.4,2.2-2.7,2.7l-0.5-0.7c1.6-0.5,2.7-1.9,2.7-3.5V1h0.9v1
		c0,1.4,1.2,2.7,2.7,3.2L122.6,6z M126,10.6v0.7h-7.3V8.7h6V7.5h-6V6.8h6.9v2.5h-6v1.2H126z M124.7,3.4h-2.4V2.7h2.4v-2h0.9v5.6
		h-0.9V3.4z"/>
	<path d="M127.8,12.2c0.7-0.3,1.2-0.9,1.2-1.6c0,0-0.1,0-0.1,0c-0.4,0-0.7-0.3-0.7-0.7c0-0.4,0.4-0.7,0.8-0.7c0.5,0,0.9,0.5,0.9,1.2
		c0,1.1-0.7,2-1.7,2.4L127.8,12.2z"/>
	<path d="M139.4,1.9c0,3.1-1.5,5.8-5,7.5l-0.5-0.7c2.9-1.4,4.4-3.5,4.6-6.1h-4.1V1.9H139.4z M142.5,0.7v10.7h-0.9V0.7H142.5z"/>
	<path d="M146.1,8.1c2,0,3.3-0.1,5-0.3l0.1,0.7c-1.7,0.3-3,0.3-5.1,0.3h-0.8V1.7h5v0.7h-4.1v2.3h3.9v0.7h-3.9V8.1z M154.8,5.8H153
		v5.6h-0.9V0.7h0.9v4.4h1.8V5.8z"/>
	<path d="M168.2,7.6h-4.4v3.8h-0.9V7.6h-4.4V6.8h9.7V7.6z M159.1,5.2c1.8-0.3,3.8-1.5,3.8-3V2.1h-3.4V1.4h7.8v0.7h-3.4v0.1
		c0,1.5,2,2.7,3.8,3l-0.3,0.7c-1.6-0.3-3.3-1.2-3.9-2.5c-0.6,1.3-2.3,2.2-3.9,2.5L159.1,5.2z"/>
	<path d="M174.9,6.8h-4.8V1.4h0.9v1.9h3.1V1.4h0.9v1.3h2.6v-2h0.9v7.9h-0.9V5.8h-2.6V6.8z M174,4.1h-3.1v2h3.1V4.1z M178.6,10.5v0.7
		h-7.1V7.9h0.9v2.6H178.6z M174.9,3.4V5h2.6V3.4H174.9z"/>
	<path d="M187,3.7c0,2,1.4,3.9,2.9,4.6L189.4,9c-1.2-0.6-2.3-1.9-2.8-3.5c-0.5,1.6-1.6,3-2.8,3.7l-0.5-0.7c1.5-0.7,2.9-2.8,2.9-4.8
		v-2h0.9V3.7z M192,0.7v10.7h-0.9V0.7H192z"/>
	<path d="M200.1,6c-1.2-0.4-2.1-1.3-2.6-2.4c-0.4,1.2-1.4,2.2-2.7,2.7l-0.5-0.7c1.6-0.5,2.7-1.9,2.7-3.5V1h0.9v1
		c0,1.4,1.2,2.7,2.7,3.2L200.1,6z M203.5,10.6v0.7h-7.3V8.7h6V7.5h-6V6.8h6.9v2.5h-6v1.2H203.5z M202.2,3.4h-2.4V2.7h2.4v-2h0.9v5.6
		h-0.9V3.4z"/>
	<path d="M214.1,2.8h-6V2.1h2.6V0.7h0.9v1.4h2.5V2.8z M211.1,7.5c-1.4,0-2.4-0.8-2.4-2.1c0-1.2,1-2,2.4-2c1.4,0,2.4,0.8,2.4,2
		C213.5,6.7,212.5,7.5,211.1,7.5z M211.1,6.8c0.9,0,1.6-0.5,1.6-1.4c0-0.8-0.6-1.3-1.6-1.3c-0.9,0-1.6,0.5-1.6,1.3
		C209.5,6.2,210.1,6.8,211.1,6.8z M217.1,10.5v0.7h-7.1v-3h0.9v2.3H217.1z M215.9,3.6V0.7h0.9v8.2h-0.9V6.6H214V5.8h1.9V4.3H214V3.6
		H215.9z"/>
	<path d="M225.8,7c-2.3,0.4-4.8,0.4-6.7,0.4L219,6.8c0.9,0,1.9,0,2.9,0V5.8c-1.3-0.1-2.1-0.7-2.1-1.5c0-0.9,1-1.5,2.5-1.5
		c1.5,0,2.5,0.6,2.5,1.5c0,0.9-0.8,1.4-2,1.5v0.9c1-0.1,2-0.1,3-0.3L225.8,7z M225.5,2.3h-6.2V1.7h2.7v-1h0.9v1h2.7V2.3z M227.4,9.8
		c0,1.1-1.3,1.6-3.5,1.6c-2.2,0-3.5-0.6-3.5-1.6c0-1.1,1.3-1.7,3.5-1.7C226.1,8.1,227.4,8.7,227.4,9.8z M222.4,5.2
		c1,0,1.6-0.4,1.6-0.9c0-0.6-0.6-0.9-1.6-0.9c-1,0-1.7,0.4-1.7,0.9C220.7,4.9,221.3,5.2,222.4,5.2z M226.5,9.8c0-0.6-1-1-2.6-1
		c-1.7,0-2.6,0.4-2.6,1c0,0.6,0.9,1,2.6,1C225.6,10.8,226.5,10.4,226.5,9.8z M228.9,4v0.7h-1.6V8h-0.9V0.7h0.9V4H228.9z"/>
	<path d="M230.1,12.2c0.7-0.3,1.2-0.9,1.2-1.6c0,0-0.1,0-0.1,0c-0.4,0-0.7-0.3-0.7-0.7c0-0.4,0.4-0.7,0.8-0.7c0.5,0,0.9,0.5,0.9,1.2
		c0,1.1-0.7,2-1.7,2.4L230.1,12.2z"/>
	<path d="M239.8,4c0,1.8,1.4,3.7,2.9,4.4l-0.5,0.7c-1.2-0.6-2.3-1.8-2.9-3.3c-0.5,1.6-1.6,3-2.8,3.6L236,8.7
		c1.5-0.7,2.9-2.8,2.9-4.6V2.5h-2.5V1.8h6v0.7h-2.6V4z M244.8,0.7v10.7h-0.9V0.7H244.8z"/>
	<path d="M256.7,6.8h-4.4v4.7h-0.9V6.8h-4.4V6h7.2c0.3-1.5,0.3-2.7,0.3-3.7V2.1h-6.3V1.4h7.1v0.9c0,1,0,2.1-0.3,3.7h1.6V6.8z"/>
	<path d="M264.4,6.2c-1.5,0.3-2.8,0.4-5,0.4h-0.8V1.6h4.7v0.7h-3.9v3.5c2.2,0,3.4-0.1,4.9-0.4L264.4,6.2z M260.6,10.5h6.2v0.7h-7.1
		V7.7h0.9V10.5z M268,3.9v0.7h-1.6v3.8h-0.9V0.7h0.9v3.3H268z"/>
	<path d="M276.3,6.8c-1,0.2-2.1,0.3-3.2,0.4v3.9h-0.9V7.3c-1.1,0-2.1,0.1-3,0.1l-0.1-0.7c2,0,4.7,0,7.1-0.4L276.3,6.8z M269.9,3.4
		c0-1.3,1.1-2.2,2.7-2.2c1.6,0,2.7,0.9,2.7,2.2c0,1.3-1.1,2.2-2.7,2.2C271.1,5.6,269.9,4.7,269.9,3.4z M270.8,3.4
		c0,0.9,0.8,1.5,1.9,1.5c1.1,0,1.9-0.6,1.9-1.5c0-0.9-0.8-1.5-1.9-1.5C271.5,2,270.8,2.6,270.8,3.4z M277.9,0.7v10.7H277V0.7H277.9z
		"/>
	<path d="M289,1h0.8v9.9H289V7.1h-2V6.4h2v-2h-1.9c-0.5,1.8-1.7,3.5-3.7,4.7l-0.5-0.6c2.3-1.4,3.5-3.4,3.7-5.7h-3.2V2.1h4.1
		c0,0.6,0,1.1-0.1,1.6h1.7V1z M291.9,0.7v10.7h-0.8V0.7H291.9z"/>
	<path d="M300.9,7.1c-2.3,0.4-4.9,0.4-6.9,0.4l-0.1-0.7c0.9,0,2,0,3.1,0V6c-1.3-0.1-2.1-0.7-2.1-1.6c0-1,1-1.6,2.5-1.6
		c1.5,0,2.5,0.6,2.5,1.6c0,0.9-0.8,1.5-2.1,1.6v0.7c1,0,2-0.1,3-0.3L300.9,7.1z M300.6,2.4h-6.3V1.7h2.7V0.6h0.9v1.1h2.7V2.4z
		 M295.5,8.4h7.2v3h-0.9V9.1h-6.3V8.4z M297.4,5.4c1,0,1.7-0.4,1.7-1c0-0.6-0.7-1-1.7-1c-1,0-1.7,0.4-1.7,1
		C295.7,5,296.4,5.4,297.4,5.4z M302.6,0.7v7.2h-0.9V0.7H302.6z"/>
	<path d="M304.9,12.2c0.7-0.3,1.2-0.9,1.2-1.6c0,0-0.1,0-0.1,0c-0.4,0-0.7-0.3-0.7-0.7c0-0.4,0.4-0.7,0.8-0.7c0.5,0,0.9,0.5,0.9,1.2
		c0,1.1-0.7,2-1.7,2.4L304.9,12.2z"/>
	<path d="M315.4,2.1c0,2.7-1,5.3-4,7l-0.5-0.6c2.5-1.4,3.5-3.4,3.7-5.6h-3.3V2.1H315.4z M319.9,0.7v10.7h-0.8V5.8h-1.5v5.1h-0.8V1
		h0.8v4.1h1.5V0.7H319.9z"/>
	<path d="M327.3,5.8h-4.9V1.1h0.9v1.6h3.2V1.1h0.9V5.8z M326.4,3.4h-3.2v1.7h3.2V3.4z M324.3,10.6h6.3v0.7h-7.1V8.7h5.9V7.5h-5.9
		V6.8h6.8v2.6h-5.9V10.6z M331.8,3.1v0.7h-1.6v2.5h-0.9V0.7h0.9v2.4H331.8z"/>
	<path d="M339,1h0.8v9.9H339V7.1h-2V6.4h2v-2h-1.9c-0.5,1.8-1.7,3.5-3.7,4.7l-0.5-0.6c2.3-1.4,3.5-3.4,3.7-5.7h-3.2V2.1h4.1
		c0,0.6,0,1.1-0.1,1.6h1.7V1z M342,0.7v10.7h-0.8V0.7H342z"/>
	<path d="M351,7.1c-2.3,0.4-4.9,0.4-6.9,0.4L344,6.8c0.9,0,2,0,3.1,0V6c-1.3-0.1-2.1-0.7-2.1-1.6c0-1,1-1.6,2.5-1.6
		c1.5,0,2.5,0.6,2.5,1.6c0,0.9-0.8,1.5-2.1,1.6v0.7c1,0,2-0.1,3-0.3L351,7.1z M350.6,2.4h-6.3V1.7h2.7V0.6h0.9v1.1h2.7V2.4z
		 M345.5,8.4h7.2v3h-0.9V9.1h-6.3V8.4z M347.5,5.4c1,0,1.7-0.4,1.7-1c0-0.6-0.7-1-1.7-1c-1,0-1.7,0.4-1.7,1
		C345.8,5,346.5,5.4,347.5,5.4z M352.7,0.7v7.2h-0.9V0.7H352.7z"/>
	<path d="M367.4,5.8v0.7h-9.7V5.8H367.4z M366.2,9.5c0,1.2-1.4,1.9-3.7,1.9c-2.3,0-3.7-0.7-3.7-1.9c0-1.2,1.4-1.9,3.7-1.9
		C364.8,7.5,366.2,8.3,366.2,9.5z M366.2,4.8h-7.3V1.2h7.3v0.7h-6.4v2.2h6.5V4.8z M365.3,9.5c0-0.8-1-1.2-2.8-1.2
		c-1.7,0-2.8,0.4-2.8,1.2c0,0.8,1.1,1.2,2.8,1.2C364.2,10.7,365.3,10.3,365.3,9.5z"/>
	<path d="M378.4,6.4v0.7h-9.7V6.4H378.4z M369.8,3.2c0-1.3,1.5-2.1,3.8-2.1s3.7,0.8,3.7,2.1c0,1.3-1.5,2.1-3.7,2.1
		S369.8,4.5,369.8,3.2z M370.8,10.5h6.5v0.7H370V8.1h0.9V10.5z M370.7,3.2c0,0.9,1.1,1.4,2.9,1.4s2.9-0.5,2.9-1.4
		c0-0.9-1.1-1.4-2.9-1.4S370.7,2.3,370.7,3.2z"/>
	<path d="M11.7,21.1c-1.6,0-2.8-1.1-2.8-2.6c0-1.5,1.2-2.6,2.8-2.6c1.6,0,2.8,1.1,2.8,2.6C14.5,20,13.3,21.1,11.7,21.1z M11.7,20.4
		c1.1,0,1.9-0.8,1.9-1.9s-0.8-1.9-1.9-1.9c-1.1,0-1.9,0.8-1.9,1.9S10.6,20.4,11.7,20.4z M17.8,24.9v0.7h-7.2v-3.4h0.9v2.7H17.8z
		 M17.5,23h-0.9v-7.9h0.9V23z"/>
	<path d="M26,17.6h-6.3v-0.7h2.7v-1.6h0.9v1.6H26V17.6z M25.4,20.9c0,1.5-1.1,2.5-2.5,2.5c-1.4,0-2.5-1-2.5-2.5
		c0-1.4,1.1-2.4,2.5-2.4C24.3,18.5,25.4,19.5,25.4,20.9z M24.6,20.9c0-1-0.7-1.7-1.7-1.7c-1,0-1.7,0.7-1.7,1.7c0,1,0.7,1.7,1.7,1.7
		C23.9,22.7,24.6,21.9,24.6,20.9z M28.5,15.1v10.7h-0.9v-5.5h-1.8v-0.7h1.8v-4.5H28.5z"/>
	<path d="M36.2,16.3c0,3-1.4,5.8-4.9,7.5l-0.5-0.7c2.8-1.4,4.3-3.5,4.5-6.1h-4v-0.7H36.2z M40.7,20.2H39v5.6h-0.9V15.1H39v4.4h1.8
		V20.2z"/>
	<path d="M50,20.2h-5v-4.4h5V20.2z M50.3,22.8c0,1.1,1.8,2.1,3.6,2.4l-0.3,0.7c-1.6-0.2-3.1-1-3.7-2c-0.6,1-2.2,1.8-3.8,2l-0.3-0.7
		c1.8-0.2,3.6-1.3,3.6-2.4v0h-3.2V22h3.2V21h0.9V22h3.2v0.7L50.3,22.8L50.3,22.8z M49.1,16.5h-3.3v2.9h3.3V16.5z M53.2,21.3h-0.9
		v-6.2h0.9V21.3z"/>
	<path d="M64,21.1c-1.2-0.4-2.1-1.4-2.6-2.5c-0.4,1.3-1.5,2.3-2.7,2.8l-0.5-0.7c1.6-0.6,2.7-2,2.7-3.6v-0.4h-2.4v-0.7h5.7v0.7h-2.4
		v0.4c0,1.4,1.1,2.7,2.6,3.3L64,21.1z M67,23.8c0,1.3-1.3,2-3.6,2c-2.2,0-3.5-0.7-3.5-2s1.3-2,3.5-2C65.7,21.8,67,22.6,67,23.8z
		 M66.2,23.8c0-0.8-1-1.3-2.7-1.3c-1.6,0-2.7,0.5-2.7,1.3s1,1.3,2.7,1.3C65.1,25.1,66.2,24.6,66.2,23.8z M66.1,17.9v-2.8H67v6.4
		h-0.9v-2.8h-2.2v-0.7H66.1z"/>
	<path d="M79,22.2h-4.4v3.6h-0.9v-3.6h-4.4v-0.7H79V22.2z M77.7,20.2h-7.2v-4.6h0.9v1.5h5.5v-1.5h0.9V20.2z M76.8,17.8h-5.5v1.6h5.5
		V17.8z"/>
	<path d="M86.7,18.1c0,2,1.4,3.9,2.9,4.6l-0.5,0.7c-1.2-0.6-2.3-1.9-2.8-3.5c-0.5,1.6-1.6,3-2.8,3.7l-0.5-0.7
		c1.5-0.7,2.9-2.8,2.9-4.8v-2h0.9V18.1z M91.7,15.1v10.7h-0.9V15.1H91.7z"/>
	<path d="M98.9,21.2c-1-0.4-1.8-1.3-2.2-2.3c-0.3,1.1-1.1,2-2.2,2.5l-0.4-0.7c1.4-0.6,2.2-1.9,2.2-3.3v-0.1h-2v-0.7h2v-1.3h0.8v1.3
		h2v0.7h-2v0.1c0,1.3,0.9,2.6,2.2,3.1L98.9,21.2z M95.8,22.3h7.2v3.5h-0.9V23h-6.3V22.3z M103,15.1v6.6h-0.8v-3h-1.5v2.9h-0.8v-6.3
		h0.8V18h1.5v-2.9H103z"/>
	<path d="M111.2,15.4h0.8v9.9h-0.8V20h-1.5c-0.1,2.1-0.9,3.4-2.3,3.4c-1.4,0-2.3-1.4-2.3-3.7c0-2.3,0.9-3.7,2.3-3.7
		c1.3,0,2.2,1.2,2.3,3.3h1.5V15.4z M108.9,19.7c0-1.7-0.6-2.9-1.5-2.9c-0.9,0-1.5,1.1-1.5,2.9c0,1.8,0.6,2.9,1.5,2.9
		C108.3,22.6,108.9,21.5,108.9,19.7z M114.1,15.1v10.7h-0.8V15.1H114.1z"/>
	<path d="M120,22.2c0.5,0,1.2-0.1,1.9-0.2l0.1,0.7c-1,0.2-1.8,0.2-2.4,0.2h-0.5v-6.8h2.7V17H120V22.2z M123.2,22.2
		c0.9,0,1.6,0,2.3-0.3l0.1,0.7c-1,0.2-1.7,0.3-2.8,0.3h-0.5v-6.8h2.8V17h-2V22.2z M128.7,20.1h-1.6v5.7h-0.9V15.1h0.9v4.3h1.6V20.1z
		"/>
	<path d="M131.1,22.5c2,0,3.4-0.1,5.1-0.4l0.1,0.7c-1.7,0.3-3.1,0.4-5.2,0.4h-0.8v-4.1h3.9v-2.3h-4v-0.7h4.8v3.8h-3.9V22.5z
		 M139.8,20.1H138v5.7h-0.9V15.1h0.9v4.3h1.8V20.1z"/>
	<path d="M148.8,21.2H144v-5.4h0.9v1.9h3.1v-1.9h0.9v1.3h2.6v-2h0.9v7.9h-0.9v-2.9h-2.6V21.2z M148,18.5h-3.1v2h3.1V18.5z
		 M152.6,24.9v0.7h-7.1v-3.3h0.9v2.6H152.6z M148.8,17.8v1.6h2.6v-1.6H148.8z"/>
	<path d="M159.7,17.8c-0.7,1.7-2.4,3-4.7,3.7l-0.3-0.7c2.6-0.8,4.2-2.3,4.4-4.2h-3.9v-0.7h4.8c0,0.4,0,0.8-0.1,1.2h2.5v-2h0.9v6.5
		h-0.9v-1.5h-2.9v-0.7h2.9v-1.5H159.7z M163.4,23.7c0,1.3-1.4,2.1-3.5,2.1s-3.5-0.8-3.5-2.1c0-1.3,1.4-2,3.5-2
		S163.4,22.5,163.4,23.7z M162.5,23.7c0-0.8-1-1.3-2.7-1.3c-1.6,0-2.7,0.5-2.7,1.3c0,0.8,1,1.3,2.7,1.3
		C161.5,25.1,162.5,24.6,162.5,23.7z"/>
	<path d="M173.8,20.2h-5v-4.4h5V20.2z M174.1,22.8c0,1.1,1.8,2.1,3.6,2.4l-0.3,0.7c-1.6-0.2-3.1-1-3.7-2c-0.6,1-2.2,1.8-3.8,2
		l-0.3-0.7c1.8-0.2,3.6-1.3,3.6-2.4v0H170V22h3.2V21h0.9V22h3.2v0.7L174.1,22.8L174.1,22.8z M172.9,16.5h-3.2v2.9h3.2V16.5z
		 M177,21.3h-0.9v-6.2h0.9V21.3z"/>
	<path d="M189.1,21.5c-1,0.2-2.1,0.3-3.2,0.3v3.7h-0.9v-3.7c-1.1,0-2.1,0.1-3,0.1l-0.1-0.7c2.1,0,4.8,0,7.1-0.3L189.1,21.5z
		 M182.5,19.7c1.5-0.4,2.6-1.4,2.6-2.6v0h-2.4v-0.7h2.4v-1.2h0.9v1.2h2.4v0.7h-2.4v0c0,1.1,1.1,2.1,2.6,2.4l-0.3,0.7
		c-1.2-0.3-2.2-1-2.7-1.9c-0.4,1-1.4,1.7-2.7,2L182.5,19.7z M190.7,15.1v10.7h-0.9V15.1H190.7z"/>
	<path d="M202.7,23.7v0.7H193v-0.7h4.4V21h0.9v2.7H202.7z M201.9,21.1c-1.6-0.3-3.3-1.5-4-3c-0.7,1.6-2.4,2.7-4,3l-0.4-0.7
		c1.8-0.3,3.9-1.9,3.9-3.7v-0.8h0.9v0.8c0,1.8,2.2,3.4,3.9,3.7L201.9,21.1z"/>
	<path d="M211.1,20.2c-2.3,0.3-4.9,0.4-6.9,0.4l-0.1-0.7c0.9,0,2,0,3.1,0v-1.2h-2.1v-3.1h5v0.7H206V18h4.2v0.7h-2.2v1.1
		c1,0,2.1-0.1,3-0.2L211.1,20.2z M213.2,25v0.7h-7.4v-2.5h6.2v-1.1h-6.2v-0.7h7v2.4h-6.1V25H213.2z M212.8,20.9h-0.9v-5.8h0.9V20.9z
		"/>
	<path d="M227.5,21.9H223v3.9h-0.9v-3.9h-4.4v-0.7h9.7V21.9z M226.6,19.9c-1.6-0.3-3.3-1.2-4-2.6c-0.7,1.3-2.3,2.3-4,2.6l-0.3-0.7
		c1.9-0.3,3.9-1.6,3.9-3.1v-0.6h0.9v0.6c0,1.5,2,2.8,3.9,3.1L226.6,19.9z"/>
	<path d="M231.7,18.2c0-1.5,1.2-2.5,2.8-2.5c1.6,0,2.8,1,2.8,2.5c0,1.5-1.2,2.5-2.8,2.5C232.9,20.7,231.7,19.7,231.7,18.2z
		 M239,22.3c0,1.1,0.8,2.2,2.2,2.7l-0.4,0.7c-1.1-0.4-1.8-1.1-2.2-2.1c-0.3,0.9-1,1.7-2,2.1c-1-0.4-1.7-1.2-2-2.1
		c-0.4,0.9-1.1,1.6-2.1,2L232,25c1.3-0.5,2.2-1.7,2.2-2.7v-0.6h0.8v0.6c0,1,0.5,2,1.5,2.6c1-0.6,1.6-1.8,1.6-2.6v-0.6h0.9V22.3z
		 M232.6,18.2c0,1,0.8,1.8,1.9,1.8c1.1,0,1.9-0.7,1.9-1.8c0-1-0.8-1.8-1.9-1.8C233.4,16.5,232.6,17.2,232.6,18.2z M240.3,21.2h-0.9
		v-6.1h0.9V21.2z"/>
	<path d="M252.2,20v0.7h-9.7V20H252.2z M251.3,19.2c-1.6-0.3-3.3-1.1-3.9-2.3c-0.7,1.2-2.3,2.1-4,2.3l-0.3-0.7
		c1.8-0.2,3.8-1.4,3.8-2.8v-0.5h0.9v0.5c0,1.4,2,2.6,3.8,2.8L251.3,19.2z M250.1,21.5h0.9v4.1h-7.2v-4.1h0.9v1.3h5.4V21.5z
		 M250.1,23.5h-5.4V25h5.4V23.5z"/>
	<path d="M255.1,22.3c1.7,0,3.3-0.1,5.2-0.5l0.1,0.7c-1.9,0.4-3.5,0.5-5.3,0.5h-0.9v-6.9h0.9V22.3z M262.3,15.1v10.7h-0.9V15.1
		H262.3z"/>
	<path d="M265.9,22.4c2,0,3.4-0.1,5-0.4l0.1,0.8c-1.7,0.3-3,0.4-5.1,0.4h-0.8v-7h5v0.7h-4.1V22.4z M274.6,20.1h-1.8v5.7h-0.9V15.1
		h0.9v4.3h1.8V20.1z"/>
	<path d="M275.9,24.3c0-0.5,0.3-0.8,0.7-0.8c0.4,0,0.7,0.3,0.7,0.8c0,0.5-0.3,0.8-0.7,0.8C276.2,25.1,275.9,24.8,275.9,24.3z"/>
	<path d="M14.5,34.1c0,2.3-1.1,3.7-2.7,3.7c-1.6,0-2.7-1.5-2.7-3.7s1.1-3.7,2.7-3.7C13.4,30.4,14.5,31.8,14.5,34.1z M9.9,34.1
		c0,1.8,0.8,3,1.9,3c1.1,0,1.9-1.2,1.9-3c0-1.8-0.8-2.9-1.9-2.9C10.7,31.1,9.9,32.3,9.9,34.1z M17.4,29.5v10.7h-0.9V29.5H17.4z"/>
	<path d="M29.4,35v0.7h-9.7V35H29.4z M21.9,39.2h6.5V40H21v-3.1h0.9V39.2z M28.3,33.5H21v-3.6h0.9v2.9h6.4V33.5z"/>
	<path d="M37.2,32.5c0,2,1.4,3.9,2.9,4.6l-0.5,0.7c-1.2-0.6-2.3-1.9-2.8-3.5c-0.5,1.6-1.6,3-2.8,3.7l-0.5-0.7
		c1.5-0.7,2.9-2.8,2.9-4.8v-2h0.9V32.5z M42.2,29.5v10.7h-0.9V29.5H42.2z"/>
	<path d="M49.9,31.5h-5.5v-0.7h2.3v-1.2h0.9v1.2h2.3V31.5z M47.2,35.8c-1.3,0-2.3-0.7-2.3-1.8c0-1.1,0.9-1.8,2.3-1.8
		c1.4,0,2.3,0.7,2.3,1.8C49.4,35.1,48.5,35.8,47.2,35.8z M47.2,35.1c0.9,0,1.5-0.5,1.5-1.2c0-0.7-0.6-1.2-1.5-1.2
		c-0.9,0-1.5,0.5-1.5,1.2C45.7,34.6,46.3,35.1,47.2,35.1z M53.6,38.4c0,1.2-1.3,1.8-3.5,1.8c-2.2,0-3.6-0.7-3.6-1.8
		c0-1.2,1.3-1.9,3.6-1.9C52.2,36.5,53.6,37.2,53.6,38.4z M52.7,38.4c0-0.7-1-1.2-2.7-1.2c-1.7,0-2.7,0.4-2.7,1.2
		c0,0.7,1,1.2,2.7,1.2C51.7,39.5,52.7,39.1,52.7,38.4z M51.2,35.9h-0.8v-6.2h0.8v2.7h1.5v-3h0.8v6.8h-0.8v-3.1h-1.5V35.9z"/>
	<path d="M59,32.5c0,1.9,1.3,3.8,2.8,4.6l-0.5,0.7c-1.2-0.6-2.2-1.9-2.7-3.4c-0.5,1.6-1.5,3-2.7,3.6l-0.5-0.7
		c1.5-0.8,2.8-2.8,2.8-4.8v-2H59V32.5z M65.5,34.6h-1.8v5.6h-0.9V29.5h0.9v4.4h1.8V34.6z"/>
	<path d="M74.8,34.6h-5v-4.4h5V34.6z M75.1,37.2c0,1.1,1.8,2.1,3.6,2.4l-0.3,0.7c-1.6-0.2-3.1-1-3.7-2c-0.6,1-2.2,1.8-3.8,2
		l-0.3-0.7c1.8-0.2,3.6-1.3,3.6-2.4v0H71v-0.7h3.2v-1.1h0.9v1.1h3.2v0.7L75.1,37.2L75.1,37.2z M73.9,30.9h-3.3v2.9h3.3V30.9z
		 M78,35.7h-0.9v-6.2H78V35.7z"/>
	<path d="M86.7,32.5c0,2,1.4,3.9,2.9,4.6l-0.5,0.7c-1.2-0.6-2.3-1.9-2.8-3.5c-0.5,1.6-1.6,3-2.8,3.7l-0.5-0.7
		c1.5-0.7,2.9-2.8,2.9-4.8v-2h0.9V32.5z M91.7,29.5v10.7h-0.9V29.5H91.7z"/>
	<path d="M103.7,34.5v0.7H94v-0.7h4v-2.1h0.9v2.1H103.7z M102.5,38.3c0,1.2-1.5,2-3.7,2c-2.3,0-3.7-0.7-3.7-2c0-1.2,1.5-2,3.7-2
		C101.1,36.3,102.5,37,102.5,38.3z M101.6,30.8h-6.4v-0.7h7.3V31c0,0.9,0,1.7-0.3,2.8l-0.9-0.1c0.3-1.1,0.3-1.9,0.3-2.7V30.8z
		 M101.6,38.3c0-0.8-1.1-1.3-2.9-1.3S96,37.5,96,38.3c0,0.8,1.1,1.3,2.8,1.3S101.6,39,101.6,38.3z"/>
	<path d="M108.6,32.5c0,1.9,1.3,3.8,2.8,4.6l-0.5,0.7c-1.2-0.6-2.2-1.9-2.7-3.4c-0.5,1.6-1.5,3-2.7,3.6l-0.5-0.7
		c1.5-0.8,2.8-2.8,2.8-4.8v-2h0.9V32.5z M115,34.6h-1.8v5.6h-0.9V29.5h0.9v4.4h1.8V34.6z"/>
	<path d="M119.7,37.1c1,0,2-0.1,3-0.2l0.1,0.6c-2.3,0.4-4.8,0.4-6.7,0.4l-0.1-0.7c0.9,0,1.9,0,2.9,0v-1.9c-1.4-0.2-2.4-1.1-2.4-2.5
		c0-1.5,1.2-2.5,2.8-2.5c1.6,0,2.8,1,2.8,2.5c0,1.3-1,2.3-2.4,2.5V37.1z M119.3,34.5c1.1,0,2-0.7,2-1.8c0-1-0.8-1.8-2-1.8
		c-1.2,0-2,0.7-2,1.8C117.3,33.7,118.1,34.5,119.3,34.5z M126,34.7h-1.8v5.5h-0.9V29.5h0.9V34h1.8V34.7z"/>
	<path d="M139.5,36.5h-4.4v3.7h-0.9v-3.7h-4.4v-0.7h9.7V36.5z M138.2,34.3H131v-4.2h7.2V34.3z M137.4,30.8h-5.5v2.7h5.5V30.8z"/>
	<path d="M147.6,35.4c-2.2,0.4-4.8,0.4-6.7,0.4l-0.1-0.7c0.7,0,1.5,0,2.3,0v-2.4h0.9V35c1.2,0,2.4-0.1,3.5-0.3L147.6,35.4z
		 M145.6,34c0.3-1.3,0.3-2.2,0.3-2.9h-4.4v-0.7h5.3v0.6c0,0.7,0,1.8-0.3,3.2L145.6,34z M143.3,39.3h6.2V40h-7.1v-3.2h0.9V39.3z
		 M150.7,33v0.7h-1.6v3.8h-0.9v-8.1h0.9V33H150.7z"/>
	<path d="M155.4,31.2h2.7V32h-6.3v-0.7h2.8v-1.6h0.9V31.2z M157.6,35.4c0,1.5-1.1,2.4-2.6,2.4c-1.5,0-2.6-1-2.6-2.4
		c0-1.4,1.1-2.4,2.6-2.4C156.5,32.9,157.6,33.9,157.6,35.4z M156.8,35.4c0-1-0.7-1.7-1.8-1.7c-1,0-1.8,0.7-1.8,1.7s0.7,1.7,1.8,1.7
		C156,37.1,156.8,36.3,156.8,35.4z M161.9,34.7h-1.8v5.5h-0.9V29.5h0.9V34h1.8V34.7z"/>
	<path d="M171.7,29.5v10.7h-0.9v-4.5h-2.7v1.7h-4.8v-6.9h4.8v1.5h2.7v-2.6H171.7z M167.3,31.3h-3.1v5.5h3.1V31.3z M170.8,35.1v-2.2
		h-2.7v2.2H170.8z"/>
	<path d="M173.9,41c0.7-0.3,1.2-0.9,1.2-1.6c0,0-0.1,0-0.1,0c-0.4,0-0.7-0.3-0.7-0.7c0-0.4,0.4-0.7,0.8-0.7c0.5,0,0.9,0.5,0.9,1.2
		c0,1.1-0.7,2-1.7,2.4L173.9,41z"/>
	<path d="M185.9,34.7c-1.2-0.4-2.2-1.4-2.7-2.5c-0.5,1.3-1.5,2.3-2.7,2.7l-0.5-0.7c1.6-0.6,2.8-2,2.8-3.6v-0.8h0.9v0.8
		c0,1.5,1.2,2.9,2.8,3.4L185.9,34.7z M189,39.4v0.7h-7.3v-2.6h6v-1.2h-6v-0.7h6.9v2.5h-6v1.2H189z M188.6,35.1h-0.9v-5.6h0.9V35.1z"
		/>
	<path d="M194,32.6c0,1.9,0.9,3.7,2.3,4.6l-0.5,0.6c-1.1-0.6-1.8-1.8-2.2-3.2c-0.4,1.5-1.2,2.8-2.3,3.5l-0.6-0.6
		c1.5-0.9,2.4-2.9,2.4-4.8v-1.1h-2.1v-0.7h4.9v0.7h-2V32.6z M197,29.8h0.8v9.9H197v-5.6h-1.8v-0.7h1.8V29.8z M200,29.5v10.7h-0.8
		V29.5H200z"/>
	<path d="M205.6,37.1c1,0,2-0.1,3-0.2l0.1,0.6c-2.3,0.4-4.8,0.4-6.7,0.4l-0.1-0.7c0.9,0,1.9,0,2.9,0v-1.9c-1.4-0.2-2.4-1.1-2.4-2.5
		c0-1.5,1.2-2.5,2.8-2.5c1.6,0,2.8,1,2.8,2.5c0,1.3-1,2.3-2.4,2.5V37.1z M205.1,34.5c1.1,0,2-0.7,2-1.8c0-1-0.8-1.8-2-1.8
		c-1.2,0-2,0.7-2,1.8C203.2,33.7,204,34.5,205.1,34.5z M211.9,34.7h-1.8v5.5h-0.9V29.5h0.9V34h1.8V34.7z"/>
	<path d="M222.7,38.1v0.7H213v-0.7h4.4v-2.8h-3.2v-4.9h7.2v0.7h-6.4v3.4h6.5v0.7h-3.3v2.8H222.7z"/>
	<path d="M230.2,33c0,1.8,1.1,3.5,2.6,4.3l-0.5,0.7c-1.2-0.6-2.1-1.8-2.6-3.2c-0.5,1.5-1.5,2.8-2.7,3.4l-0.5-0.7
		c1.5-0.8,2.8-2.6,2.8-4.5v-0.9h-2.5v-0.7h2.5v-1.7h0.9v1.7h2.4v0.7h-2.4V33z M236.7,34.7h-1.8v5.5H234V29.5h0.9V34h1.8V34.7z"/>
	<path d="M243.6,34.1c0,2.3-1.1,3.7-2.7,3.7s-2.7-1.5-2.7-3.7s1.1-3.7,2.7-3.7S243.6,31.8,243.6,34.1z M239,34.1c0,1.8,0.8,3,1.9,3
		c1.1,0,1.9-1.2,1.9-3c0-1.8-0.8-2.9-1.9-2.9C239.8,31.1,239,32.3,239,34.1z M246.5,29.5v10.7h-0.9V29.5H246.5z"/>
	<path d="M254.2,30.7c0,3-1.4,5.8-4.9,7.5l-0.5-0.7c2.8-1.4,4.3-3.5,4.5-6.1h-4v-0.7H254.2z M258.7,34.6H257v5.6h-0.9V29.5h0.9v4.4
		h1.8V34.6z"/>
	<path d="M262.8,32.6c0-1.5,1.2-2.5,2.8-2.5c1.6,0,2.8,1,2.8,2.5c0,1.5-1.2,2.5-2.8,2.5C263.9,35.1,262.8,34.1,262.8,32.6z
		 M270,36.7c0,1.1,0.8,2.2,2.2,2.7l-0.4,0.7c-1.1-0.4-1.8-1.1-2.2-2.1c-0.3,0.9-1,1.7-2,2.1c-1-0.4-1.7-1.2-2-2.1
		c-0.4,0.9-1.1,1.6-2.1,2l-0.4-0.7c1.3-0.5,2.2-1.7,2.2-2.7v-0.6h0.8v0.6c0,1,0.5,2,1.5,2.6c1-0.6,1.6-1.8,1.6-2.6v-0.6h0.9V36.7z
		 M263.6,32.6c0,1,0.8,1.8,1.9,1.8c1.1,0,1.9-0.7,1.9-1.8c0-1-0.8-1.8-1.9-1.8C264.4,30.9,263.6,31.6,263.6,32.6z M271.3,35.6h-0.9
		v-6.1h0.9V35.6z"/>
	<path d="M283.2,34.2v0.7h-9.7v-0.7H283.2z M274.6,31.6c0-1.2,1.4-1.9,3.8-1.9c2.4,0,3.7,0.7,3.7,1.9c0,1.2-1.4,1.9-3.7,1.9
		C276,33.4,274.6,32.8,274.6,31.6z M275.6,39.4h6.7v0.7h-7.5v-2.5h6.4v-1h-6.4v-0.7h7.3v2.4h-6.4V39.4z M275.5,31.6
		c0,0.8,1.1,1.2,2.9,1.2c1.8,0,2.9-0.4,2.9-1.2c0-0.8-1.1-1.2-2.9-1.2C276.6,30.4,275.5,30.8,275.5,31.6z"/>
	<path d="M296.9,36.3h-4.4v3.9h-0.9v-3.9h-4.4v-0.7h9.7V36.3z M296.1,34.3c-1.6-0.3-3.3-1.2-4-2.6c-0.7,1.3-2.3,2.3-4,2.6l-0.3-0.7
		c1.9-0.3,3.9-1.6,3.9-3.1v-0.6h0.9v0.6c0,1.5,2,2.8,3.9,3.1L296.1,34.3z"/>
	<path d="M301.2,32.6c0-1.5,1.2-2.5,2.8-2.5c1.6,0,2.8,1,2.8,2.5c0,1.5-1.2,2.5-2.8,2.5C302.4,35.1,301.2,34.1,301.2,32.6z
		 M308.5,36.7c0,1.1,0.8,2.2,2.2,2.7l-0.4,0.7c-1.1-0.4-1.8-1.1-2.2-2.1c-0.3,0.9-1,1.7-2,2.1c-1-0.4-1.7-1.2-2-2.1
		c-0.4,0.9-1.1,1.6-2.1,2l-0.4-0.7c1.3-0.5,2.2-1.7,2.2-2.7v-0.6h0.8v0.6c0,1,0.5,2,1.5,2.6c1-0.6,1.6-1.8,1.6-2.6v-0.6h0.9V36.7z
		 M302.1,32.6c0,1,0.8,1.8,1.9,1.8s1.9-0.7,1.9-1.8c0-1-0.8-1.8-1.9-1.8S302.1,31.6,302.1,32.6z M309.7,35.6h-0.9v-6.1h0.9V35.6z"/>
	<path d="M321.7,38.1v0.7H312v-0.7H321.7z M320.7,33.1c0,1.8-1.6,2.9-3.9,2.9c-2.2,0-3.9-1.2-3.9-2.9c0-1.8,1.7-2.9,3.9-2.9
		C319.1,30.2,320.7,31.4,320.7,33.1z M313.8,33.1c0,1.3,1.3,2.2,3,2.2c1.7,0,3-0.9,3-2.2c0-1.3-1.3-2.2-3-2.2
		C315.1,30.9,313.8,31.8,313.8,33.1z"/>
	<path d="M324.6,36.7c1.7,0,3.3-0.1,5.2-0.5l0.1,0.7c-1.9,0.4-3.5,0.5-5.3,0.5h-0.9v-6.9h0.9V36.7z M331.8,29.5v10.7h-0.9V29.5
		H331.8z"/>
	<path d="M342.9,35.5c-1.2-0.4-2.3-1.3-2.7-2.5c-0.5,1.2-1.5,2.2-2.7,2.7l-0.5-0.7c1.6-0.6,2.7-1.9,2.7-3.5V31h-2.5v-0.7h5.9V31
		h-2.5v0.5c0,1.5,1.2,2.8,2.7,3.3L342.9,35.5z M338.4,36.6h7.1v3.6h-0.9v-2.9h-6.3V36.6z M345.5,29.5V36h-0.9v-6.5H345.5z"/>
	<path d="M353.6,35.2c-1.2-0.4-2.1-1.4-2.6-2.5c-0.5,1.3-1.5,2.3-2.7,2.7l-0.5-0.7c1.6-0.6,2.7-2,2.7-3.5v-0.4h-2.4v-0.7h5.7v0.7
		h-2.4v0.4c0,1.4,1.1,2.7,2.6,3.3L353.6,35.2z M355.7,35.9h0.9v4.2h-6.8v-4.2h0.9v1.4h5.1V35.9z M355.7,37.9h-5.1v1.4h5.1V37.9z
		 M356.6,29.5v5.8h-0.9v-2.5h-2.2v-0.7h2.2v-2.6H356.6z"/>
	<path d="M368.3,35.9c-2.3,0.4-4.9,0.4-6.7,0.4l-0.1-0.7c0.9,0,1.9,0,2.9,0v-0.8c-1.3-0.1-2.1-0.7-2.1-1.6c0-1,1-1.6,2.5-1.6
		c1.5,0,2.5,0.6,2.5,1.6c0,0.9-0.8,1.5-2,1.6v0.8c1,0,2-0.1,3-0.3L368.3,35.9z M367.9,31.2h-6.2v-0.7h2.7v-1.1h0.9v1.1h2.7V31.2z
		 M362.8,37.2h7v3h-0.9V38h-6.1V37.2z M364.8,34.2c1,0,1.6-0.4,1.6-1c0-0.6-0.6-1-1.6-1c-1,0-1.7,0.4-1.7,1
		C363.2,33.8,363.8,34.2,364.8,34.2z M371.4,33.5h-1.6v3.2h-0.9v-7.2h0.9v3.3h1.6V33.5z"/>
	<path d="M375.6,35.5c-1.6,0-2.8-1.1-2.8-2.6c0-1.5,1.2-2.6,2.8-2.6c1.6,0,2.8,1.1,2.8,2.6C378.4,34.4,377.2,35.5,375.6,35.5z
		 M375.6,34.8c1.1,0,1.9-0.8,1.9-1.9s-0.8-1.9-1.9-1.9c-1.1,0-1.9,0.8-1.9,1.9S374.5,34.8,375.6,34.8z M381.7,39.3V40h-7.2v-3.4h0.9
		v2.7H381.7z M381.3,37.4h-0.9v-7.9h0.9V37.4z"/>
	<path d="M387.2,31.2h2.7V32h-6.3v-0.7h2.8v-1.6h0.9V31.2z M389.3,35.4c0,1.5-1.1,2.4-2.6,2.4c-1.5,0-2.6-1-2.6-2.4
		c0-1.4,1.1-2.4,2.6-2.4C388.3,32.9,389.3,33.9,389.3,35.4z M388.5,35.4c0-1-0.7-1.7-1.8-1.7c-1,0-1.8,0.7-1.8,1.7s0.7,1.7,1.8,1.7
		C387.8,37.1,388.5,36.3,388.5,35.4z M393.6,34.7h-1.8v5.5h-0.9V29.5h0.9V34h1.8V34.7z"/>
	<path d="M398.4,32.5c0,2,1.4,3.9,2.9,4.6l-0.5,0.7c-1.2-0.6-2.3-1.9-2.8-3.5c-0.5,1.6-1.6,3-2.8,3.7l-0.5-0.7
		c1.5-0.7,2.9-2.8,2.9-4.8v-2h0.9V32.5z M403.4,29.5v10.7h-0.9V29.5H403.4z"/>
	<path d="M411.3,30.7c0,3.1-1.5,5.8-5,7.5l-0.5-0.7c2.9-1.4,4.4-3.5,4.6-6.1h-4.1v-0.7H411.3z M414.4,29.5v10.7h-0.9V29.5H414.4z"/>
	<path d="M423.9,30.4h0.9v7.2h-5v-7.2h0.9v2.9h3.2V30.4z M423.9,34h-3.2v2.9h3.2V34z M429.4,34.5h-1.8v5.7h-0.9V29.5h0.9v4.2h1.8
		V34.5z"/>
	<path d="M436.9,34.8c-1.7,0.3-3.2,0.3-5.1,0.3h-0.8v-3h3.9v-1.4h-4v-0.7h4.8v2.8h-3.9v1.6c1.9,0,3.3-0.1,5-0.4L436.9,34.8z
		 M437.9,35.9h0.9v4.2H432v-4.2h0.9v1.4h5V35.9z M437.9,38h-5v1.4h5V38z M440.3,32.9h-1.6v2.6h-0.9v-5.9h0.9v2.6h1.6V32.9z"/>
	<path d="M443,36.7c1.7,0,3.3-0.1,5.2-0.5l0.1,0.7c-1.9,0.4-3.5,0.5-5.3,0.5h-0.9v-6.9h0.9V36.7z M450.2,29.5v10.7h-0.9V29.5H450.2z
		"/>
	<path d="M453.8,36.8c2,0,3.4-0.1,5-0.4l0.1,0.8c-1.7,0.3-3,0.4-5.1,0.4H453v-7h5v0.7h-4.1V36.8z M462.5,34.5h-1.8v5.7h-0.9V29.5
		h0.9v4.3h1.8V34.5z"/>
	<path d="M463.8,38.7c0-0.5,0.3-0.8,0.7-0.8c0.4,0,0.7,0.3,0.7,0.8c0,0.5-0.3,0.8-0.7,0.8C464.1,39.5,463.8,39.2,463.8,38.7z"/>
</g>
</svg>
