<?xml version="1.0" encoding="utf-8"?>
<!-- Generator: Adobe Illustrator 25.0.1, SVG Export Plug-In . SVG Version: 6.00 Build 0)  -->
<svg version="1.1" id="Layer_1" xmlns="http://www.w3.org/2000/svg" xmlns:xlink="http://www.w3.org/1999/xlink" x="0px" y="0px"
	 viewBox="0 0 64.2 63" style="enable-background:new 0 0 64.2 63;" xml:space="preserve">
<style type="text/css">
	.st0{fill:#FFFFFF;}
</style>
<g>
	<path d="M24.5,35.3h-3V35h-2v0.3h-2.4V35h-2.5v0.3h-1.8V35h-1.7v-6.8h4.7V18.1h4.5v0.8h6.1v4.9h-1.2v4.5h1.2V35h-1.9V35.3z
		 M21.7,35.1h2.6v-0.3h1.9v-6.4h-1.2v-4.9h1.2v-4.5h-6.1v-0.8h-4.1v10.2h-4.7v6.4H13v0.3h1.4v-0.3h2.9v0.3h2v-0.3h2.4V35.1z"/>
	<path d="M37,50.5h-6.4v-2.3h-0.2v-5.4h0.2v-2.1h-0.2v-2.9h0.2v-1.2H37v3.2h9.5v4.5h-0.7v4.6H37V50.5z M30.8,50.3h6v-1.6h8.8v-4.6
		h0.7V40h-9.5v-3.2h-5.9v1.2h-0.2v2.5h0.2v2.5h-0.2v5h0.2V50.3z"/>
	<path d="M43.3,61.8h-1.8v-0.3h-3.8v0.3h-5.4v-0.3h-1.7v-1.1h-0.3v-3h0.3v-2h-0.2v-2.9h0.2v-1.8h7.7v2.4h0.9V50h2.2v-0.9h5.1v2.8
		h-0.7v4.7h0.7v4.9h-3.2V61.8z M41.7,61.6h1.4v-0.3h3.2v-4.5h-0.7v-5.1h0.7v-2.4h-4.7v0.9h-2.2v3.1h-1.3v-2.4h-7.3v1.8h-0.2v2.5h0.2
		v2.4h-0.3v2.6h0.3v1.1h1.7v0.3h5v-0.3h4.2V61.6z"/>
	<path d="M11.9,13.3H3.1v-3H1.7V1.6h0.9V1.4h3.3v0.3h2.4V1.4h3.3v0.3h0.9v0.8h1.2V2.2h2.8v0.2h1v9.3h-5.6V13.3z M3.3,13.1h8.5v-1.5
		h5.6V2.6h-1V2.4h-2.4v0.2h-1.6V1.8h-0.9V1.6H8.6v0.3H5.7V1.6H2.8v0.3H1.9v8.2h1.3V13.1z"/>
	<path d="M28,13.3h-8.9v-3h-1.3V1.6h0.9V1.4h3.3v0.3h2.4V1.4h3.3v0.3h0.9v0.8h1.2V2.2h2.8v0.2h1v9.3H28V13.3z M19.3,13.1h8.5v-1.5
		h5.6V2.6h-1V2.4H30v0.2h-1.6V1.8h-0.9V1.6h-2.9v0.3h-2.8V1.6h-2.9v0.3h-0.9v8.2h1.3V13.1z"/>
	<path d="M61.5,45.5h-9.3v-5.6h-1.5v-8.9h3v-1.3h8.6v0.9h0.2v3.3h-0.2v2.4h0.2v3.3h-0.2v0.9h-0.8v1.2h0.3v2.8h-0.3V45.5z M52.4,45.3
		h8.9v-1h0.3v-2.4h-0.3v-1.6h0.8v-0.9h0.2v-2.9h-0.2v-2.8h0.2v-2.9h-0.2v-0.9h-8.2v1.3h-3v8.5h1.5V45.3z"/>
	<path d="M61.5,61.6h-9.3V56h-1.5v-8.9h3v-1.3h8.6v0.9h0.2v3.3h-0.2v2.4h0.2v3.3h-0.2v0.9h-0.8v1.2h0.3v2.8h-0.3V61.6z M52.4,61.4
		h8.9v-1h0.3V58h-0.3v-1.6h0.8v-0.9h0.2v-2.9h-0.2v-2.8h0.2v-2.9h-0.2v-0.9h-8.2v1.3h-3v8.5h1.5V61.4z"/>
	<path d="M41.9,13.3h-8.2V9h1.5V7.5h-1.5v-6h1.7V1.2h2.4v0.3h2.1V1.2h3v0.3h1.2v9h-2.2V13.3z M34,13.1h7.8v-2.8H44V1.6h-1.2V1.4
		h-2.7v0.3h-2.5V1.4h-2v0.3H34v5.6h1.5v1.9H34V13.1z"/>
	<path d="M62.5,29.5h-9v-2.2h-2.8v-8.2H55v1.5h1.5v-1.5h6v1.7h0.2v2.4h-0.2v2h0.2v3h-0.2V29.5z M53.7,29.3h8.6v-1.2h0.2v-2.6h-0.2
		V23h0.2v-2h-0.2v-1.7h-5.6v1.5h-1.9v-1.5h-3.9v7.8h2.8V29.3z"/>
	<polygon class="st0" points="53.2,17.3 54.6,17.3 54.6,18.8 61.5,18.8 61.5,17.3 61.5,17.1 61.8,17.1 61.8,15.9 61.5,15.9 
		61.5,14.8 60.2,13.5 60.4,13.4 60.3,13.2 59.6,12.6 57.4,10.4 57,10 56.9,9.9 56.7,10 56.5,9.9 54,7.3 54.2,7.1 50.8,3.8 50.7,3.6 
		50.5,3.8 50.3,3.6 49.2,2.5 48.2,2.5 48.2,2.3 45.8,2.3 45.8,2.5 44.5,2.5 44.5,3.6 44.5,3.8 44.5,7.1 44.5,7.3 44.5,9.9 44.5,10 
		44.5,10.4 45.1,10.4 45.1,12.6 44.5,13.2 44.6,13.4 44.8,13.5 46.1,14.8 47.2,15.9 48.3,17.1 48.5,17.3 50.1,18.8 53.2,18.8 	"/>
	<path d="M61.6,18.9h-7.1v-1.5h-1.2v1.5H50l-5.7-5.7l0.7-0.7v-2.1h-0.6v-8h1.3V2.2h2.6v0.3h1l1.2,1.2l0.2-0.2l0.2,0.2l3.4,3.4
		l-0.2,0.2l2.6,2.6l0.2-0.2l0.2,0.3l0.3,0.3l3.1,3.1l-0.2,0.2l1.2,1.2v1.1h0.3v1.3h-0.3V18.9z M54.7,18.7h6.7V17h0.3V16h-0.3v-1.2
		l-1.3-1.3l0.2-0.2l-2.9-2.9L57,10.1L56.9,10l-0.2,0.2l-0.2-0.3l-2.6-2.6L54,7.1l-3.4-3.4l-0.2,0.2l-1.3-1.3h-1.1V2.4h-2.2v0.3h-1.3
		v7.6h0.6v2.4l-0.6,0.6l5.5,5.5h3v-1.5h1.6V18.7z"/>
	<path d="M6.4,35.3H2.8V35H1.7v-5.5H1.5v-5h0.2v-2.4H1.5v-1.8h0.2v-1.7h5.4v-0.6h4.6v-0.7h3.8v6.2h-1.7v4.5h-3v7H6.4V35.3z M3,35.1
		h3.2v-0.3h4.5v-7h3v-4.5h1.7v-5.8h-3.4v0.7H7.4v0.6H1.9v1.7H1.7v1.4h0.2v2.8H1.7v4.6h0.2v5.5H3V35.1z"/>
</g>
</svg>
