<?xml version="1.0" encoding="utf-8"?>
<!-- Generator: Adobe Illustrator 25.0.1, SVG Export Plug-In . SVG Version: 6.00 Build 0)  -->
<svg version="1.1" id="Layer_1" xmlns="http://www.w3.org/2000/svg" xmlns:xlink="http://www.w3.org/1999/xlink" x="0px" y="0px"
	 viewBox="0 0 64.2 63" style="enable-background:new 0 0 64.2 63;" xml:space="preserve">
<style type="text/css">
	.st0{fill:#FFFFFF;}
</style>
<g>
	<polygon class="st0" points="20.1,18.2 15.8,18.2 15.8,19 15.8,23.7 15.8,28.4 11.2,28.4 11.2,28.4 11.2,35 11.5,35 12.9,35 
		12.9,35.2 14.4,35.2 14.4,35 17.2,35 17.2,35.2 19.3,35.2 19.3,35 21.6,35 21.6,35.2 24.4,35.2 24.4,35 26.2,35 26.2,28.4 25,28.4 
		25,28.4 25,23.7 26.2,23.7 26.2,19 20.1,19 	"/>
	<path d="M24.5,35.3h-3V35h-2v0.3h-2.4V35h-2.5v0.3h-1.8V35h-1.7v-6.8h0.1h4.6V18.1h4.5v0.8h6.1v4.9h-1.2v4.5h1.2v6.8h-1.9
		C24.5,35.1,24.5,35.3,24.5,35.3z M21.7,35.1h2.6v-0.3h1.9v-6.4H25v-4.9h1.2V19H20v-0.8h-4.1v10.2h-4.7v6.4H13v0.3h1.4v-0.3h2.9v0.3
		h2v-0.3h2.4C21.7,34.8,21.7,35.1,21.7,35.1z"/>
	<path d="M37,50.5h-6.4v-2.3h-0.2v-5.4h0.2v-2.1h-0.2v-2.9h0.2v-1.2H37v3.2h9.5v4.5h-0.7v4.6H37V50.5z M30.8,50.3h6v-1.6h8.8v-4.6
		h0.7V40h-9.5v-3.2h-5.9V38h-0.2v2.5h0.2V43h-0.2v5h0.2v2.3H30.8z"/>
	<path d="M43.3,61.8h-1.8v-0.3h-3.8v0.3h-5.4v-0.3h-1.7v-1.1h-0.3v-3h0.3v-2h-0.2v-2.9h0.2v-1.8h7.7v2.4h0.9V50h2.2v-0.9h5.1v2.8
		h-0.7v4.7h0.7v4.9h-3.2V61.8z M41.7,61.6h1.4v-0.3h3.2v-4.5h-0.7v-5.1h0.7v-2.4h-4.7v0.9h-2.2v3.1h-1.3v-2.4h-7.3v1.8h-0.2v2.5h0.2
		v2.4h-0.3v2.6h0.3v1.1h1.7v0.3h5v-0.3h4.2C41.7,61.3,41.7,61.6,41.7,61.6z"/>
	<path d="M11.9,13.3H3v-3H1.7V1.7h0.9V1.4h3.3v0.3h2.4V1.4h3.3v0.3h0.9v0.8h1.2V2.2h2.8v0.2h1v9.3h-5.6
		C11.9,11.7,11.9,13.3,11.9,13.3z M3.2,13.1h8.5v-1.5h5.6v-9h-1V2.4h-2.4v0.2h-1.6V1.9h-0.9V1.6H8.5v0.3H5.7V1.6H2.8v0.3H1.9v8.2
		h1.3C3.2,10.1,3.2,13.1,3.2,13.1z"/>
	<path d="M27.9,13.3H19v-3h-1.3V1.7h0.9V1.4h3.3v0.3h2.4V1.4h3.3v0.3h0.9v0.8h1.2V2.2h2.8v0.2h1v9.3h-5.6V13.3z M19.3,13.1h8.5v-1.5
		h5.6v-9h-1V2.4H30v0.2h-1.6V1.9h-0.9V1.6h-2.9v0.3h-2.8V1.6h-2.9v0.3H18v8.2h1.3C19.3,10.1,19.3,13.1,19.3,13.1z"/>
	<path d="M61.5,45.5h-9.3v-5.6h-1.5V31h3v-1.3h8.6v0.9h0.2v3.3h-0.2v2.4h0.2v3.3h-0.2v0.9h-0.8v1.2h0.3v2.8h-0.3
		C61.5,44.5,61.5,45.5,61.5,45.5z M52.3,45.3h8.9v-1h0.3V42h-0.3v-1.6H62v-0.9h0.2v-2.9H62v-2.8h0.2v-2.9H62V30h-8.2v1.3h-3v8.5h1.5
		C52.3,39.8,52.3,45.3,52.3,45.3z"/>
	<path d="M61.5,61.6h-9.3V56h-1.5v-8.9h3v-1.3h8.6v0.9h0.2V50h-0.2v2.4h0.2v3.3h-0.2v0.9h-0.8v1.2h0.3v2.8h-0.3
		C61.5,60.6,61.5,61.6,61.5,61.6z M52.3,61.4h8.9v-1h0.3V58h-0.3v-1.6H62v-0.9h0.2v-2.9H62v-2.8h0.2v-2.9H62V46h-8.2v1.3h-3v8.5h1.5
		C52.3,55.8,52.3,61.4,52.3,61.4z"/>
	<path d="M41.9,13.3h-8.2V9h1.5V7.5h-1.5v-6h1.7V1.2h2.4v0.3h2.1V1.2h3v0.3h1.2v9h-2.2V13.3z M34,13.1h7.8v-2.8H44V1.7h-1.2V1.4
		h-2.7v0.3h-2.5V1.4h-2v0.3H34v5.6h1.5v1.9H34V13.1z"/>
	<path d="M62.5,29.5h-9v-2.2h-2.8v-8.2H55v1.5h1.5v-1.5h6v1.7h0.2v2.4h-0.2v2h0.2v3.1h-0.2V29.5z M53.6,29.3h8.6v-1.2h0.2v-2.6h-0.2
		V23h0.2v-2h-0.2v-1.7h-5.6v1.5h-1.9v-1.5h-3.9v7.8h2.8C53.6,27.1,53.6,29.3,53.6,29.3z"/>
	<path d="M61.6,18.9h-7.1v-1.5h-1.2v1.5H50l-5.7-5.7l0.7-0.7v-2.1h-0.6v-8h1.3V2.2h2.6v0.3h1l1.2,1.2l0.2-0.2l0.2,0.2l3.4,3.4
		l-0.2,0.2l2.6,2.6l0.2-0.2l0.2,0.3l0.3,0.3l3.1,3.1l-0.2,0.2l1.2,1.2v1.1h0.3v1.3h-0.3L61.6,18.9L61.6,18.9z M54.7,18.7h6.7V17h0.3
		v-0.9h-0.3v-1.2l-1.3-1.3l0.2-0.2l-2.9-2.9L57,10.1L56.9,10l-0.2,0.2l-2.9-2.9L54,7.2l-3.4-3.4L50.5,4l-1.3-1.3h-1.1V2.4h-2.2v0.3
		h-1.3v7.6h0.6v2.4l-0.6,0.6l5.5,5.5h3v-1.5h1.6V18.7z"/>
	<path d="M6.4,35.3H2.8V35H1.7v-5.5H1.5v-5h0.2v-2.4H1.5v-1.8h0.2v-1.7h5.4V18h4.6v-0.7h3.8v6.2h-1.7V28h-3v7H6.4V35.3z M3,35.1h3.2
		v-0.3h4.5v-7h3v-4.5h1.7v-5.8H12v0.7H7.3v0.6H1.9v1.7H1.7v1.4h0.2v2.8H1.7v4.6h0.2v5.5H3V35.1z"/>
</g>
</svg>
